%
M48
M72
T01C0.0236
T02C0.0320
T03C0.0400
%
T01
X5032Y2180
X8032Y7180
X11032Y7180
X13032Y12180
X14032Y12180
X18532Y12180
X23032Y12180
X24032Y12180
X28532Y12180
X33032Y12180
X31032Y7180
X28032Y7180
X28032Y2180
X35032Y2180
X21032Y7180
X18032Y7180
X16532Y2180
X8532Y12180
X4032Y12180
X2032Y11680
X2532Y9680
X2532Y23180
X2532Y24680
X2532Y26180
X4532Y24180
X9032Y24180
X13532Y24180
X14532Y24180
X19032Y24180
X23532Y24180
X24532Y24180
X29032Y24180
X33532Y24180
X36532Y24680
X38532Y27180
X35032Y29180
X29532Y29180
X26532Y29180
X19532Y29180
X16532Y29180
X9532Y29180
X6532Y29180
X38532Y21680
T02
X33032Y22680
X32032Y22680
X31032Y22680
X30032Y22680
X29032Y22680
X28032Y22680
X27032Y22680
X26032Y22680
X25032Y22680
X23032Y22680
X22032Y22680
X21032Y22680
X20032Y22680
X19032Y22680
X18032Y22680
X17032Y22680
X16032Y22680
X15032Y22680
X13032Y22680
X12032Y22680
X11032Y22680
X10032Y22680
X9032Y22680
X8032Y22680
X7032Y22680
X6032Y22680
X5032Y22680
X5032Y25680
X6032Y25680
X7032Y25680
X8032Y25680
X9032Y25680
X10032Y25680
X11032Y25680
X12032Y25680
X13032Y25680
X15032Y25680
X16032Y25680
X17032Y25680
X18032Y25680
X19032Y25680
X20032Y25680
X21032Y25680
X22032Y25680
X23032Y25680
X25032Y25680
X26032Y25680
X27032Y25680
X28032Y25680
X29032Y25680
X30032Y25680
X31032Y25680
X32032Y25680
X33032Y25680
X33032Y27680
X32032Y27680
X31032Y27680
X30032Y27680
X29032Y27680
X28032Y27680
X27032Y27680
X26032Y27680
X23032Y27680
X22032Y27680
X21032Y27680
X20032Y27680
X19032Y27680
X18032Y27680
X17032Y27680
X16032Y27680
X13032Y27680
X12032Y27680
X11032Y27680
X10032Y27680
X9032Y27680
X8032Y27680
X7032Y27680
X6032Y27680
X6032Y30680
X7032Y30680
X8032Y30680
X9032Y30680
X10032Y30680
X11032Y30680
X12032Y30680
X13032Y30680
X16032Y30680
X17032Y30680
X18032Y30680
X19032Y30680
X20032Y30680
X21032Y30680
X22032Y30680
X23032Y30680
X26032Y30680
X27032Y30680
X28032Y30680
X29032Y30680
X30032Y30680
X31032Y30680
X32032Y30680
X33032Y30680
X32532Y13680
X31532Y13680
X30532Y13680
X29532Y13680
X28532Y13680
X27532Y13680
X26532Y13680
X25532Y13680
X24532Y13680
X22532Y13680
X21532Y13680
X20532Y13680
X19532Y13680
X18532Y13680
X17532Y13680
X16532Y13680
X15532Y13680
X14532Y13680
X12532Y13680
X11532Y13680
X10532Y13680
X9532Y13680
X8532Y13680
X7532Y13680
X6532Y13680
X5532Y13680
X4532Y13680
X4532Y10680
X5532Y10680
X6532Y10680
X7532Y10680
X8532Y10680
X9532Y10680
X10532Y10680
X11532Y10680
X12532Y10680
X14532Y10680
X15532Y10680
X16532Y10680
X17532Y10680
X18532Y10680
X19532Y10680
X20532Y10680
X21532Y10680
X22532Y10680
X24532Y10680
X25532Y10680
X26532Y10680
X27532Y10680
X28532Y10680
X29532Y10680
X30532Y10680
X31532Y10680
X32532Y10680
X31532Y8680
X30532Y8680
X29532Y8680
X28532Y8680
X27532Y8680
X26532Y8680
X25532Y8680
X24532Y8680
X21532Y8680
X20532Y8680
X19532Y8680
X18532Y8680
X17532Y8680
X16532Y8680
X15532Y8680
X14532Y8680
X11532Y8680
X10532Y8680
X9532Y8680
X8532Y8680
X7532Y8680
X6532Y8680
X5532Y8680
X4532Y8680
X4532Y5680
X5532Y5680
X6532Y5680
X7532Y5680
X8532Y5680
X9532Y5680
X10532Y5680
X11532Y5680
X14532Y5680
X15532Y5680
X16532Y5680
X17532Y5680
X18532Y5680
X19532Y5680
X20532Y5680
X21532Y5680
X24532Y5680
X25532Y5680
X26532Y5680
X27532Y5680
X28532Y5680
X29532Y5680
X30532Y5680
X31532Y5680
T03
X32032Y16680
X31032Y16680
X33032Y16680
X34032Y16680
X34032Y19680
X33032Y19680
X32032Y19680
X31032Y19680
X28532Y19680
X27532Y19680
X26532Y19680
X25532Y19680
X23032Y19680
X22032Y19680
X21032Y19680
X20032Y19680
X17532Y19680
X16532Y19680
X15532Y19680
X14532Y19680
X12032Y19680
X11032Y19680
X10032Y19680
X9032Y19680
X6532Y19680
X5532Y19680
X4532Y19680
X3532Y19680
X3532Y16680
X4532Y16680
X5532Y16680
X6532Y16680
X9032Y16680
X10032Y16680
X11032Y16680
X12032Y16680
X14532Y16680
X15532Y16680
X16532Y16680
X17532Y16680
X20032Y16680
X21032Y16680
X22032Y16680
X23032Y16680
X25532Y16680
X26532Y16680
X27532Y16680
X28532Y16680
X36532Y27680
X36532Y28680
X36532Y29680
X36532Y30680
X36532Y31680
X2532Y31680
X2532Y30680
X2532Y29680
X2532Y28680
X2532Y27680
M30
