G75*
%MOIN*%
%OFA0B0*%
%FSLAX24Y24*%
%IPPOS*%
%LPD*%
%AMOC8*
5,1,8,0,0,1.08239X$1,22.5*
%
%ADD10C,0.0600*%
%ADD11C,0.0820*%
%ADD12C,0.0680*%
%ADD13R,0.0552X0.0395*%
D10*
X004532Y005420D02*
X004532Y005940D01*
X005532Y005940D02*
X005532Y005420D01*
X006532Y005420D02*
X006532Y005940D01*
X007532Y005940D02*
X007532Y005420D01*
X008532Y005420D02*
X008532Y005940D01*
X009532Y005940D02*
X009532Y005420D01*
X010532Y005420D02*
X010532Y005940D01*
X011532Y005940D02*
X011532Y005420D01*
X014532Y005420D02*
X014532Y005940D01*
X015532Y005940D02*
X015532Y005420D01*
X016532Y005420D02*
X016532Y005940D01*
X017532Y005940D02*
X017532Y005420D01*
X018532Y005420D02*
X018532Y005940D01*
X019532Y005940D02*
X019532Y005420D01*
X020532Y005420D02*
X020532Y005940D01*
X021532Y005940D02*
X021532Y005420D01*
X024532Y005420D02*
X024532Y005940D01*
X025532Y005940D02*
X025532Y005420D01*
X026532Y005420D02*
X026532Y005940D01*
X027532Y005940D02*
X027532Y005420D01*
X028532Y005420D02*
X028532Y005940D01*
X029532Y005940D02*
X029532Y005420D01*
X030532Y005420D02*
X030532Y005940D01*
X031532Y005940D02*
X031532Y005420D01*
X031532Y008420D02*
X031532Y008940D01*
X030532Y008940D02*
X030532Y008420D01*
X029532Y008420D02*
X029532Y008940D01*
X028532Y008940D02*
X028532Y008420D01*
X027532Y008420D02*
X027532Y008940D01*
X026532Y008940D02*
X026532Y008420D01*
X025532Y008420D02*
X025532Y008940D01*
X024532Y008940D02*
X024532Y008420D01*
X024532Y010420D02*
X024532Y010940D01*
X025532Y010940D02*
X025532Y010420D01*
X026532Y010420D02*
X026532Y010940D01*
X027532Y010940D02*
X027532Y010420D01*
X028532Y010420D02*
X028532Y010940D01*
X029532Y010940D02*
X029532Y010420D01*
X030532Y010420D02*
X030532Y010940D01*
X031532Y010940D02*
X031532Y010420D01*
X032532Y010420D02*
X032532Y010940D01*
X032532Y013420D02*
X032532Y013940D01*
X031532Y013940D02*
X031532Y013420D01*
X030532Y013420D02*
X030532Y013940D01*
X029532Y013940D02*
X029532Y013420D01*
X028532Y013420D02*
X028532Y013940D01*
X027532Y013940D02*
X027532Y013420D01*
X026532Y013420D02*
X026532Y013940D01*
X025532Y013940D02*
X025532Y013420D01*
X024532Y013420D02*
X024532Y013940D01*
X022532Y013940D02*
X022532Y013420D01*
X021532Y013420D02*
X021532Y013940D01*
X020532Y013940D02*
X020532Y013420D01*
X019532Y013420D02*
X019532Y013940D01*
X018532Y013940D02*
X018532Y013420D01*
X017532Y013420D02*
X017532Y013940D01*
X016532Y013940D02*
X016532Y013420D01*
X015532Y013420D02*
X015532Y013940D01*
X014532Y013940D02*
X014532Y013420D01*
X012532Y013420D02*
X012532Y013940D01*
X011532Y013940D02*
X011532Y013420D01*
X010532Y013420D02*
X010532Y013940D01*
X009532Y013940D02*
X009532Y013420D01*
X008532Y013420D02*
X008532Y013940D01*
X007532Y013940D02*
X007532Y013420D01*
X006532Y013420D02*
X006532Y013940D01*
X005532Y013940D02*
X005532Y013420D01*
X004532Y013420D02*
X004532Y013940D01*
X004532Y010940D02*
X004532Y010420D01*
X005532Y010420D02*
X005532Y010940D01*
X006532Y010940D02*
X006532Y010420D01*
X007532Y010420D02*
X007532Y010940D01*
X008532Y010940D02*
X008532Y010420D01*
X009532Y010420D02*
X009532Y010940D01*
X010532Y010940D02*
X010532Y010420D01*
X011532Y010420D02*
X011532Y010940D01*
X012532Y010940D02*
X012532Y010420D01*
X011532Y008940D02*
X011532Y008420D01*
X010532Y008420D02*
X010532Y008940D01*
X009532Y008940D02*
X009532Y008420D01*
X008532Y008420D02*
X008532Y008940D01*
X007532Y008940D02*
X007532Y008420D01*
X006532Y008420D02*
X006532Y008940D01*
X005532Y008940D02*
X005532Y008420D01*
X004532Y008420D02*
X004532Y008940D01*
X014532Y008940D02*
X014532Y008420D01*
X015532Y008420D02*
X015532Y008940D01*
X016532Y008940D02*
X016532Y008420D01*
X017532Y008420D02*
X017532Y008940D01*
X018532Y008940D02*
X018532Y008420D01*
X019532Y008420D02*
X019532Y008940D01*
X020532Y008940D02*
X020532Y008420D01*
X021532Y008420D02*
X021532Y008940D01*
X021532Y010420D02*
X021532Y010940D01*
X022532Y010940D02*
X022532Y010420D01*
X020532Y010420D02*
X020532Y010940D01*
X019532Y010940D02*
X019532Y010420D01*
X018532Y010420D02*
X018532Y010940D01*
X017532Y010940D02*
X017532Y010420D01*
X016532Y010420D02*
X016532Y010940D01*
X015532Y010940D02*
X015532Y010420D01*
X014532Y010420D02*
X014532Y010940D01*
X015032Y022420D02*
X015032Y022940D01*
X016032Y022940D02*
X016032Y022420D01*
X017032Y022420D02*
X017032Y022940D01*
X018032Y022940D02*
X018032Y022420D01*
X019032Y022420D02*
X019032Y022940D01*
X020032Y022940D02*
X020032Y022420D01*
X021032Y022420D02*
X021032Y022940D01*
X022032Y022940D02*
X022032Y022420D01*
X023032Y022420D02*
X023032Y022940D01*
X025032Y022940D02*
X025032Y022420D01*
X026032Y022420D02*
X026032Y022940D01*
X027032Y022940D02*
X027032Y022420D01*
X028032Y022420D02*
X028032Y022940D01*
X029032Y022940D02*
X029032Y022420D01*
X030032Y022420D02*
X030032Y022940D01*
X031032Y022940D02*
X031032Y022420D01*
X032032Y022420D02*
X032032Y022940D01*
X033032Y022940D02*
X033032Y022420D01*
X033032Y025420D02*
X033032Y025940D01*
X032032Y025940D02*
X032032Y025420D01*
X031032Y025420D02*
X031032Y025940D01*
X030032Y025940D02*
X030032Y025420D01*
X029032Y025420D02*
X029032Y025940D01*
X028032Y025940D02*
X028032Y025420D01*
X027032Y025420D02*
X027032Y025940D01*
X026032Y025940D02*
X026032Y025420D01*
X025032Y025420D02*
X025032Y025940D01*
X026032Y027420D02*
X026032Y027940D01*
X027032Y027940D02*
X027032Y027420D01*
X028032Y027420D02*
X028032Y027940D01*
X029032Y027940D02*
X029032Y027420D01*
X030032Y027420D02*
X030032Y027940D01*
X031032Y027940D02*
X031032Y027420D01*
X032032Y027420D02*
X032032Y027940D01*
X033032Y027940D02*
X033032Y027420D01*
X033032Y030420D02*
X033032Y030940D01*
X032032Y030940D02*
X032032Y030420D01*
X031032Y030420D02*
X031032Y030940D01*
X030032Y030940D02*
X030032Y030420D01*
X029032Y030420D02*
X029032Y030940D01*
X028032Y030940D02*
X028032Y030420D01*
X027032Y030420D02*
X027032Y030940D01*
X026032Y030940D02*
X026032Y030420D01*
X023032Y030420D02*
X023032Y030940D01*
X022032Y030940D02*
X022032Y030420D01*
X021032Y030420D02*
X021032Y030940D01*
X020032Y030940D02*
X020032Y030420D01*
X019032Y030420D02*
X019032Y030940D01*
X018032Y030940D02*
X018032Y030420D01*
X017032Y030420D02*
X017032Y030940D01*
X016032Y030940D02*
X016032Y030420D01*
X016032Y027940D02*
X016032Y027420D01*
X017032Y027420D02*
X017032Y027940D01*
X018032Y027940D02*
X018032Y027420D01*
X019032Y027420D02*
X019032Y027940D01*
X020032Y027940D02*
X020032Y027420D01*
X021032Y027420D02*
X021032Y027940D01*
X022032Y027940D02*
X022032Y027420D01*
X023032Y027420D02*
X023032Y027940D01*
X023032Y025940D02*
X023032Y025420D01*
X022032Y025420D02*
X022032Y025940D01*
X021032Y025940D02*
X021032Y025420D01*
X020032Y025420D02*
X020032Y025940D01*
X019032Y025940D02*
X019032Y025420D01*
X018032Y025420D02*
X018032Y025940D01*
X017032Y025940D02*
X017032Y025420D01*
X016032Y025420D02*
X016032Y025940D01*
X015032Y025940D02*
X015032Y025420D01*
X013032Y025420D02*
X013032Y025940D01*
X012032Y025940D02*
X012032Y025420D01*
X011032Y025420D02*
X011032Y025940D01*
X010032Y025940D02*
X010032Y025420D01*
X009032Y025420D02*
X009032Y025940D01*
X008032Y025940D02*
X008032Y025420D01*
X007032Y025420D02*
X007032Y025940D01*
X006032Y025940D02*
X006032Y025420D01*
X005032Y025420D02*
X005032Y025940D01*
X006032Y027420D02*
X006032Y027940D01*
X007032Y027940D02*
X007032Y027420D01*
X008032Y027420D02*
X008032Y027940D01*
X009032Y027940D02*
X009032Y027420D01*
X010032Y027420D02*
X010032Y027940D01*
X011032Y027940D02*
X011032Y027420D01*
X012032Y027420D02*
X012032Y027940D01*
X013032Y027940D02*
X013032Y027420D01*
X013032Y030420D02*
X013032Y030940D01*
X012032Y030940D02*
X012032Y030420D01*
X011032Y030420D02*
X011032Y030940D01*
X010032Y030940D02*
X010032Y030420D01*
X009032Y030420D02*
X009032Y030940D01*
X008032Y030940D02*
X008032Y030420D01*
X007032Y030420D02*
X007032Y030940D01*
X006032Y030940D02*
X006032Y030420D01*
X006032Y022940D02*
X006032Y022420D01*
X007032Y022420D02*
X007032Y022940D01*
X008032Y022940D02*
X008032Y022420D01*
X009032Y022420D02*
X009032Y022940D01*
X010032Y022940D02*
X010032Y022420D01*
X011032Y022420D02*
X011032Y022940D01*
X012032Y022940D02*
X012032Y022420D01*
X013032Y022420D02*
X013032Y022940D01*
X005032Y022940D02*
X005032Y022420D01*
D11*
X002532Y027680D03*
X002532Y028680D03*
X002532Y029680D03*
X002532Y030680D03*
X002532Y031680D03*
X036532Y031680D03*
X036532Y030680D03*
X036532Y029680D03*
X036532Y028680D03*
X036532Y027680D03*
D12*
X034032Y019980D02*
X034032Y019380D01*
X033032Y019380D02*
X033032Y019980D01*
X032032Y019980D02*
X032032Y019380D01*
X031032Y019380D02*
X031032Y019980D01*
X028532Y019980D02*
X028532Y019380D01*
X027532Y019380D02*
X027532Y019980D01*
X026532Y019980D02*
X026532Y019380D01*
X025532Y019380D02*
X025532Y019980D01*
X023032Y019980D02*
X023032Y019380D01*
X022032Y019380D02*
X022032Y019980D01*
X021032Y019980D02*
X021032Y019380D01*
X020032Y019380D02*
X020032Y019980D01*
X017532Y019980D02*
X017532Y019380D01*
X016532Y019380D02*
X016532Y019980D01*
X015532Y019980D02*
X015532Y019380D01*
X014532Y019380D02*
X014532Y019980D01*
X012032Y019980D02*
X012032Y019380D01*
X011032Y019380D02*
X011032Y019980D01*
X010032Y019980D02*
X010032Y019380D01*
X009032Y019380D02*
X009032Y019980D01*
X006532Y019980D02*
X006532Y019380D01*
X005532Y019380D02*
X005532Y019980D01*
X004532Y019980D02*
X004532Y019380D01*
X003532Y019380D02*
X003532Y019980D01*
X003532Y016980D02*
X003532Y016380D01*
X004532Y016380D02*
X004532Y016980D01*
X005532Y016980D02*
X005532Y016380D01*
X006532Y016380D02*
X006532Y016980D01*
X009032Y016980D02*
X009032Y016380D01*
X010032Y016380D02*
X010032Y016980D01*
X011032Y016980D02*
X011032Y016380D01*
X012032Y016380D02*
X012032Y016980D01*
X014532Y016980D02*
X014532Y016380D01*
X015532Y016380D02*
X015532Y016980D01*
X016532Y016980D02*
X016532Y016380D01*
X017532Y016380D02*
X017532Y016980D01*
X020032Y016980D02*
X020032Y016380D01*
X021032Y016380D02*
X021032Y016980D01*
X022032Y016980D02*
X022032Y016380D01*
X023032Y016380D02*
X023032Y016980D01*
X025532Y016980D02*
X025532Y016380D01*
X026532Y016380D02*
X026532Y016980D01*
X027532Y016980D02*
X027532Y016380D01*
X028532Y016380D02*
X028532Y016980D01*
X031032Y016980D02*
X031032Y016380D01*
X032032Y016380D02*
X032032Y016980D01*
X033032Y016980D02*
X033032Y016380D01*
X034032Y016380D02*
X034032Y016980D01*
D13*
X033032Y007034D03*
X033032Y006326D03*
X023032Y006326D03*
X023032Y007034D03*
X013032Y007034D03*
X013032Y006326D03*
X014532Y029326D03*
X014532Y030034D03*
X024532Y030034D03*
X024532Y029326D03*
X004532Y029326D03*
X004532Y030034D03*
M02*
