%
M48
M72
T01C0.0236
T02C0.0315
T03C0.0320
T04C0.0400
%
T01
X4680Y2180
X8680Y7180
X11680Y7180
X13680Y12180
X14680Y12180
X19180Y12180
X23680Y12180
X24680Y12180
X29180Y12180
X33680Y12180
X31680Y7180
X28680Y7180
X27680Y2180
X21680Y7180
X18680Y7180
X16180Y2180
X9180Y12180
X4680Y12180
X2680Y16680
X2680Y19680
X2180Y23180
X2180Y24680
X2180Y26180
X4180Y24180
X8680Y24180
X13180Y24180
X14180Y24180
X18680Y24180
X23180Y24180
X24180Y24180
X28680Y24180
X33180Y24180
X36180Y24680
X38180Y27180
X34680Y29180
X29180Y29180
X26180Y29180
X19180Y29180
X16180Y29180
X9180Y29180
X6180Y29180
X38180Y21680
X34680Y2180
T02
X33005Y16699
X32217Y16699
X31430Y16699
X30643Y16699
X29855Y16699
X28005Y16699
X27217Y16699
X26430Y16699
X25643Y16699
X24855Y16699
X23005Y16699
X22217Y16699
X21430Y16699
X20643Y16699
X19855Y16699
X18005Y16699
X17217Y16699
X16430Y16699
X15643Y16699
X14855Y16699
X13005Y16699
X12217Y16699
X11430Y16699
X10643Y16699
X9855Y16699
X8005Y16699
X7217Y16699
X6430Y16699
X5643Y16699
X4855Y16699
X4855Y19661
X5643Y19661
X6430Y19661
X7217Y19661
X8005Y19661
X9855Y19661
X10643Y19661
X11430Y19661
X12217Y19661
X13005Y19661
X14855Y19661
X15643Y19661
X16430Y19661
X17217Y19661
X18005Y19661
X19855Y19661
X20643Y19661
X21430Y19661
X22217Y19661
X23005Y19661
X24855Y19661
X25643Y19661
X26430Y19661
X27217Y19661
X28005Y19661
X29855Y19661
X30643Y19661
X31430Y19661
X32217Y19661
X33005Y19661
T03
X32680Y22680
X31680Y22680
X30680Y22680
X29680Y22680
X28680Y22680
X27680Y22680
X26680Y22680
X25680Y22680
X24680Y22680
X22680Y22680
X21680Y22680
X20680Y22680
X19680Y22680
X18680Y22680
X17680Y22680
X16680Y22680
X15680Y22680
X14680Y22680
X12680Y22680
X11680Y22680
X10680Y22680
X9680Y22680
X8680Y22680
X7680Y22680
X6680Y22680
X5680Y22680
X4680Y22680
X4680Y25680
X5680Y25680
X6680Y25680
X7680Y25680
X8680Y25680
X9680Y25680
X10680Y25680
X11680Y25680
X12680Y25680
X14680Y25680
X15680Y25680
X16680Y25680
X17680Y25680
X18680Y25680
X19680Y25680
X20680Y25680
X21680Y25680
X22680Y25680
X24680Y25680
X25680Y25680
X26680Y25680
X27680Y25680
X28680Y25680
X29680Y25680
X30680Y25680
X31680Y25680
X32680Y25680
X32680Y27680
X31680Y27680
X30680Y27680
X29680Y27680
X28680Y27680
X27680Y27680
X26680Y27680
X25680Y27680
X22680Y27680
X21680Y27680
X20680Y27680
X19680Y27680
X18680Y27680
X17680Y27680
X16680Y27680
X15680Y27680
X12680Y27680
X11680Y27680
X10680Y27680
X9680Y27680
X8680Y27680
X7680Y27680
X6680Y27680
X5680Y27680
X5680Y30680
X6680Y30680
X7680Y30680
X8680Y30680
X9680Y30680
X10680Y30680
X11680Y30680
X12680Y30680
X15680Y30680
X16680Y30680
X17680Y30680
X18680Y30680
X19680Y30680
X20680Y30680
X21680Y30680
X22680Y30680
X25680Y30680
X26680Y30680
X27680Y30680
X28680Y30680
X29680Y30680
X30680Y30680
X31680Y30680
X32680Y30680
X32180Y13680
X31180Y13680
X30180Y13680
X29180Y13680
X28180Y13680
X27180Y13680
X26180Y13680
X25180Y13680
X23180Y13680
X22180Y13680
X21180Y13680
X20180Y13680
X19180Y13680
X18180Y13680
X17180Y13680
X16180Y13680
X15180Y13680
X13180Y13680
X12180Y13680
X11180Y13680
X10180Y13680
X9180Y13680
X8180Y13680
X7180Y13680
X6180Y13680
X5180Y13680
X5180Y10680
X6180Y10680
X7180Y10680
X8180Y10680
X9180Y10680
X10180Y10680
X11180Y10680
X12180Y10680
X13180Y10680
X15180Y10680
X16180Y10680
X17180Y10680
X18180Y10680
X19180Y10680
X20180Y10680
X21180Y10680
X22180Y10680
X23180Y10680
X25180Y10680
X26180Y10680
X27180Y10680
X28180Y10680
X29180Y10680
X30180Y10680
X31180Y10680
X32180Y10680
X33180Y10680
X32180Y8680
X31180Y8680
X30180Y8680
X29180Y8680
X28180Y8680
X27180Y8680
X26180Y8680
X25180Y8680
X22180Y8680
X21180Y8680
X20180Y8680
X19180Y8680
X18180Y8680
X17180Y8680
X16180Y8680
X15180Y8680
X12180Y8680
X11180Y8680
X10180Y8680
X9180Y8680
X8180Y8680
X7180Y8680
X6180Y8680
X5180Y8680
X5180Y5680
X6180Y5680
X7180Y5680
X8180Y5680
X9180Y5680
X10180Y5680
X11180Y5680
X12180Y5680
X15180Y5680
X16180Y5680
X17180Y5680
X18180Y5680
X19180Y5680
X20180Y5680
X21180Y5680
X22180Y5680
X25180Y5680
X26180Y5680
X27180Y5680
X28180Y5680
X29180Y5680
X30180Y5680
X31180Y5680
X32180Y5680
X33180Y13680
T04
X36180Y27680
X36180Y28680
X36180Y29680
X36180Y30680
X36180Y31680
X2180Y31680
X2180Y30680
X2180Y29680
X2180Y28680
X2180Y27680
M30
