G75*
%MOIN*%
%OFA0B0*%
%FSLAX24Y24*%
%IPPOS*%
%LPD*%
%AMOC8*
5,1,8,0,0,1.08239X$1,22.5*
%
%ADD10C,0.0000*%
%ADD11C,0.0080*%
%ADD12C,0.0060*%
%ADD13C,0.0050*%
%ADD14C,0.0010*%
%ADD15R,0.2362X0.0197*%
%ADD16C,0.0030*%
D10*
X000180Y000180D02*
X000180Y033176D01*
X039300Y033176D01*
X039300Y000180D01*
X000180Y000180D01*
D11*
X002720Y001220D02*
X002720Y002141D01*
X002873Y001834D02*
X002720Y001680D01*
X002873Y001834D02*
X003180Y001834D01*
X003334Y001680D01*
X003334Y001220D01*
X003794Y001373D02*
X003948Y001220D01*
X003794Y001373D02*
X003794Y001987D01*
X003641Y001834D02*
X003948Y001834D01*
X004255Y001834D02*
X004562Y001834D01*
X004408Y001987D02*
X004408Y001373D01*
X004562Y001220D01*
X004869Y001220D02*
X005329Y001220D01*
X005482Y001373D01*
X005482Y001680D01*
X005329Y001834D01*
X004869Y001834D01*
X004869Y000913D01*
X005789Y001220D02*
X006250Y001220D01*
X006403Y001373D01*
X006250Y001527D01*
X005943Y001527D01*
X005789Y001680D01*
X005943Y001834D01*
X006403Y001834D01*
X006710Y001834D02*
X006710Y001680D01*
X006864Y001680D01*
X006864Y001834D01*
X006710Y001834D01*
X006710Y001373D02*
X006710Y001220D01*
X006864Y001220D01*
X006864Y001373D01*
X006710Y001373D01*
X007170Y001220D02*
X007784Y002141D01*
X008705Y002141D02*
X008091Y001220D01*
X009012Y001373D02*
X009012Y001680D01*
X009166Y001834D01*
X009626Y001834D01*
X009626Y001067D01*
X009472Y000913D01*
X009319Y000913D01*
X009166Y001220D02*
X009626Y001220D01*
X009933Y001220D02*
X010240Y001220D01*
X010086Y001220D02*
X010086Y001834D01*
X009933Y001834D01*
X010086Y002141D02*
X010086Y002294D01*
X010547Y001834D02*
X010854Y001834D01*
X010700Y001987D02*
X010700Y001373D01*
X010854Y001220D01*
X011161Y001220D02*
X011161Y002141D01*
X011314Y001834D02*
X011621Y001834D01*
X011774Y001680D01*
X011774Y001220D01*
X012081Y001373D02*
X012235Y001220D01*
X012695Y001220D01*
X012695Y001834D01*
X013002Y001834D02*
X013463Y001834D01*
X013616Y001680D01*
X013616Y001373D01*
X013463Y001220D01*
X013002Y001220D01*
X013002Y002141D01*
X013388Y002913D02*
X013388Y003834D01*
X013849Y003834D01*
X014002Y003680D01*
X014002Y003373D01*
X013849Y003220D01*
X013388Y003220D01*
X013081Y003527D02*
X012467Y003527D01*
X012467Y003680D02*
X012467Y003373D01*
X012621Y003220D01*
X012928Y003220D01*
X013081Y003527D02*
X013081Y003680D01*
X012928Y003834D01*
X012621Y003834D01*
X012467Y003680D01*
X012161Y003834D02*
X011854Y003834D01*
X012007Y003987D02*
X012007Y003373D01*
X012161Y003220D01*
X011547Y003373D02*
X011393Y003220D01*
X011086Y003220D01*
X010933Y003373D01*
X011086Y003680D02*
X010933Y003834D01*
X010933Y003987D01*
X011086Y004141D01*
X011393Y004141D01*
X011547Y003987D01*
X011393Y003680D02*
X011547Y003527D01*
X011547Y003373D01*
X011393Y003680D02*
X011086Y003680D01*
X009705Y003834D02*
X009245Y003834D01*
X009091Y003680D01*
X009091Y003373D01*
X009245Y003220D01*
X009705Y003220D01*
X009705Y004141D01*
X008784Y003680D02*
X008784Y003527D01*
X008170Y003527D01*
X008170Y003680D02*
X008170Y003373D01*
X008324Y003220D01*
X008631Y003220D01*
X008784Y003680D02*
X008631Y003834D01*
X008324Y003834D01*
X008170Y003680D01*
X007864Y003834D02*
X007710Y003834D01*
X007403Y003527D01*
X007403Y003220D02*
X007403Y003834D01*
X007096Y003834D02*
X006636Y003834D01*
X006482Y003680D01*
X006482Y003373D01*
X006636Y003220D01*
X007096Y003220D01*
X007096Y004141D01*
X006175Y003680D02*
X006175Y003220D01*
X005562Y003220D02*
X005562Y003834D01*
X006022Y003834D01*
X006175Y003680D01*
X005255Y003834D02*
X005255Y003220D01*
X004794Y003220D01*
X004641Y003373D01*
X004641Y003834D01*
X004334Y003680D02*
X003720Y003680D01*
X003720Y003220D02*
X003720Y004141D01*
X004334Y004141D02*
X004334Y003220D01*
X009012Y001373D02*
X009166Y001220D01*
X011161Y001680D02*
X011314Y001834D01*
X012081Y001834D02*
X012081Y001373D01*
X013923Y001373D02*
X013923Y001220D01*
X014076Y001220D01*
X014076Y001373D01*
X013923Y001373D01*
X014383Y001373D02*
X014537Y001220D01*
X014997Y001220D01*
X015304Y001373D02*
X015458Y001220D01*
X015764Y001220D01*
X015918Y001373D01*
X015918Y001680D01*
X015764Y001834D01*
X015458Y001834D01*
X015304Y001680D01*
X015304Y001373D01*
X014997Y001834D02*
X014537Y001834D01*
X014383Y001680D01*
X014383Y001373D01*
X014309Y002913D02*
X014309Y003834D01*
X014769Y003834D01*
X014923Y003680D01*
X014923Y003373D01*
X014769Y003220D01*
X014309Y003220D01*
X015230Y003373D02*
X015230Y003680D01*
X015383Y003834D01*
X015690Y003834D01*
X015844Y003680D01*
X015844Y003527D01*
X015230Y003527D01*
X015230Y003373D02*
X015383Y003220D01*
X015690Y003220D01*
X016151Y003220D02*
X016151Y003834D01*
X016151Y003527D02*
X016458Y003834D01*
X016611Y003834D01*
X016918Y003680D02*
X017071Y003834D01*
X017532Y003834D01*
X017378Y003527D02*
X017071Y003527D01*
X016918Y003680D01*
X016918Y003220D02*
X017378Y003220D01*
X017532Y003373D01*
X017378Y003527D01*
X018760Y003834D02*
X019066Y003220D01*
X019373Y003834D01*
X019680Y003987D02*
X019834Y004141D01*
X020141Y004141D01*
X020294Y003987D01*
X019680Y003373D01*
X019834Y003220D01*
X020141Y003220D01*
X020294Y003373D01*
X020294Y003987D01*
X020601Y003373D02*
X020755Y003373D01*
X020755Y003220D01*
X020601Y003220D01*
X020601Y003373D01*
X021061Y003373D02*
X021215Y003220D01*
X021522Y003220D01*
X021675Y003373D01*
X021675Y003527D01*
X021522Y003680D01*
X021368Y003680D01*
X021522Y003680D02*
X021675Y003834D01*
X021675Y003987D01*
X021522Y004141D01*
X021215Y004141D01*
X021061Y003987D01*
X019680Y003987D02*
X019680Y003373D01*
X020829Y002141D02*
X020829Y001220D01*
X020829Y001527D02*
X021289Y001834D01*
X021596Y001680D02*
X021750Y001834D01*
X022210Y001834D01*
X022517Y001680D02*
X022517Y001373D01*
X022670Y001220D01*
X022977Y001220D01*
X023131Y001373D01*
X023131Y001680D01*
X022977Y001834D01*
X022670Y001834D01*
X022517Y001680D01*
X022210Y001373D02*
X022057Y001527D01*
X021750Y001527D01*
X021596Y001680D01*
X021596Y001220D02*
X022057Y001220D01*
X022210Y001373D01*
X021289Y001220D02*
X020829Y001527D01*
X020522Y001680D02*
X020368Y001834D01*
X019908Y001834D01*
X019908Y001220D01*
X019601Y001220D02*
X019141Y001220D01*
X018987Y001373D01*
X019141Y001527D01*
X019601Y001527D01*
X019601Y001680D02*
X019601Y001220D01*
X019601Y001680D02*
X019448Y001834D01*
X019141Y001834D01*
X018680Y001680D02*
X018680Y001220D01*
X018680Y001680D02*
X018527Y001834D01*
X018220Y001834D01*
X018066Y001680D01*
X018066Y001220D02*
X018066Y002141D01*
X017760Y002141D02*
X017146Y001220D01*
X016839Y001220D02*
X016839Y001680D01*
X016685Y001834D01*
X016532Y001680D01*
X016532Y001220D01*
X016225Y001220D02*
X016225Y001834D01*
X016378Y001834D01*
X016532Y001680D01*
X020522Y001680D02*
X020522Y001220D01*
X023438Y001220D02*
X024052Y002141D01*
X024358Y002141D02*
X024358Y001220D01*
X024358Y001680D02*
X024972Y001680D01*
X025279Y001834D02*
X025279Y001373D01*
X025433Y001220D01*
X025893Y001220D01*
X025893Y001834D01*
X026200Y001834D02*
X026660Y001834D01*
X026814Y001680D01*
X026814Y001220D01*
X027121Y001373D02*
X027121Y001680D01*
X027274Y001834D01*
X027735Y001834D01*
X028042Y001834D02*
X028042Y001220D01*
X028042Y001527D02*
X028349Y001834D01*
X028502Y001834D01*
X028809Y001680D02*
X028809Y001373D01*
X028962Y001220D01*
X029269Y001220D01*
X029423Y001527D02*
X028809Y001527D01*
X028809Y001680D02*
X028962Y001834D01*
X029269Y001834D01*
X029423Y001680D01*
X029423Y001527D01*
X029730Y001680D02*
X029883Y001834D01*
X030344Y001834D01*
X030344Y002141D02*
X030344Y001220D01*
X029883Y001220D01*
X029730Y001373D01*
X029730Y001680D01*
X030651Y001067D02*
X031264Y001067D01*
X031571Y001373D02*
X031725Y001220D01*
X032032Y001220D01*
X032185Y001373D01*
X032185Y001527D01*
X032032Y001680D01*
X031725Y001680D01*
X031571Y001834D01*
X031571Y001987D01*
X031725Y002141D01*
X032032Y002141D01*
X032185Y001987D01*
X032492Y001834D02*
X032799Y001834D01*
X032646Y001987D02*
X032646Y001373D01*
X032799Y001220D01*
X033106Y001373D02*
X033106Y001680D01*
X033259Y001834D01*
X033566Y001834D01*
X033720Y001680D01*
X033720Y001527D01*
X033106Y001527D01*
X033106Y001373D02*
X033259Y001220D01*
X033566Y001220D01*
X034027Y001220D02*
X034487Y001220D01*
X034641Y001373D01*
X034641Y001680D01*
X034487Y001834D01*
X034027Y001834D01*
X034027Y000913D01*
X034948Y000913D02*
X034948Y001834D01*
X035408Y001834D01*
X035561Y001680D01*
X035561Y001373D01*
X035408Y001220D01*
X034948Y001220D01*
X035868Y001373D02*
X036022Y001220D01*
X036329Y001220D01*
X036482Y001527D02*
X035868Y001527D01*
X035868Y001680D02*
X035868Y001373D01*
X035868Y001680D02*
X036022Y001834D01*
X036329Y001834D01*
X036482Y001680D01*
X036482Y001527D01*
X036789Y001527D02*
X037096Y001834D01*
X037249Y001834D01*
X037556Y001680D02*
X037710Y001527D01*
X038017Y001527D01*
X038170Y001373D01*
X038017Y001220D01*
X037556Y001220D01*
X037556Y001680D02*
X037710Y001834D01*
X038170Y001834D01*
X036789Y001834D02*
X036789Y001220D01*
X030730Y003220D02*
X030269Y003527D01*
X030730Y003834D01*
X030269Y004141D02*
X030269Y003220D01*
X029962Y003220D02*
X029962Y003680D01*
X029809Y003834D01*
X029349Y003834D01*
X029349Y003220D01*
X029042Y003220D02*
X028581Y003220D01*
X028428Y003373D01*
X028581Y003527D01*
X029042Y003527D01*
X029042Y003680D02*
X029042Y003220D01*
X029042Y003680D02*
X028888Y003834D01*
X028581Y003834D01*
X028121Y003680D02*
X027507Y003680D01*
X027507Y003220D02*
X027507Y004141D01*
X028121Y004141D02*
X028121Y003220D01*
X027735Y002141D02*
X027735Y001220D01*
X027274Y001220D01*
X027121Y001373D01*
X026200Y001220D02*
X026200Y001834D01*
X026126Y002913D02*
X025972Y002913D01*
X026126Y002913D02*
X026279Y003067D01*
X026279Y003834D01*
X025665Y003834D02*
X025665Y003373D01*
X025819Y003220D01*
X026279Y003220D01*
X025358Y003373D02*
X025358Y003680D01*
X025205Y003834D01*
X024745Y003834D01*
X024745Y004141D02*
X024745Y003220D01*
X025205Y003220D01*
X025358Y003373D01*
X024972Y002141D02*
X024972Y001220D01*
X035930Y027180D02*
X035680Y027430D01*
X035680Y027930D01*
X035930Y028180D01*
X035680Y028430D01*
X035680Y028930D01*
X035930Y029180D01*
X035680Y029430D01*
X035680Y029930D01*
X035930Y030180D01*
X035680Y030430D01*
X035680Y030930D01*
X035930Y031180D01*
X035680Y031430D01*
X035680Y031930D01*
X035930Y032180D01*
X036430Y032180D01*
X036680Y031930D01*
X036680Y031430D01*
X036430Y031180D01*
X036680Y030930D01*
X036680Y030430D01*
X036430Y030180D01*
X036680Y029930D01*
X036680Y029430D01*
X036430Y029180D01*
X036680Y028930D01*
X036680Y028430D01*
X036430Y028180D01*
X036680Y027930D01*
X036680Y027430D01*
X036430Y027180D01*
X035930Y027180D01*
X002680Y027430D02*
X002430Y027180D01*
X001930Y027180D01*
X001680Y027430D01*
X001680Y027930D01*
X001930Y028180D01*
X001680Y028430D01*
X001680Y028930D01*
X001930Y029180D01*
X001680Y029430D01*
X001680Y029930D01*
X001930Y030180D01*
X001680Y030430D01*
X001680Y030930D01*
X001930Y031180D01*
X001680Y031430D01*
X001680Y031930D01*
X001930Y032180D01*
X002430Y032180D01*
X002680Y031930D01*
X002680Y031430D01*
X002430Y031180D01*
X002680Y030930D01*
X002680Y030430D01*
X002430Y030180D01*
X002680Y029930D01*
X002680Y029430D01*
X002430Y029180D01*
X002680Y028930D01*
X002680Y028430D01*
X002430Y028180D01*
X002680Y027930D01*
X002680Y027430D01*
D12*
X003944Y028562D02*
X003944Y028798D01*
X004416Y028798D02*
X004416Y028562D01*
X005180Y028780D02*
X005180Y028030D01*
X013180Y028030D01*
X013180Y030330D01*
X005180Y030330D01*
X005180Y029580D01*
X005219Y029578D01*
X005258Y029572D01*
X005296Y029563D01*
X005333Y029550D01*
X005369Y029533D01*
X005402Y029513D01*
X005434Y029489D01*
X005463Y029463D01*
X005489Y029434D01*
X005513Y029402D01*
X005533Y029369D01*
X005550Y029333D01*
X005563Y029296D01*
X005572Y029258D01*
X005578Y029219D01*
X005580Y029180D01*
X005578Y029141D01*
X005572Y029102D01*
X005563Y029064D01*
X005550Y029027D01*
X005533Y028991D01*
X005513Y028958D01*
X005489Y028926D01*
X005463Y028897D01*
X005434Y028871D01*
X005402Y028847D01*
X005369Y028827D01*
X005333Y028810D01*
X005296Y028797D01*
X005258Y028788D01*
X005219Y028782D01*
X005180Y028780D01*
X004180Y025330D02*
X004180Y023030D01*
X013180Y023030D01*
X013180Y023780D01*
X013141Y023782D01*
X013102Y023788D01*
X013064Y023797D01*
X013027Y023810D01*
X012991Y023827D01*
X012958Y023847D01*
X012926Y023871D01*
X012897Y023897D01*
X012871Y023926D01*
X012847Y023958D01*
X012827Y023991D01*
X012810Y024027D01*
X012797Y024064D01*
X012788Y024102D01*
X012782Y024141D01*
X012780Y024180D01*
X012782Y024219D01*
X012788Y024258D01*
X012797Y024296D01*
X012810Y024333D01*
X012827Y024369D01*
X012847Y024402D01*
X012871Y024434D01*
X012897Y024463D01*
X012926Y024489D01*
X012958Y024513D01*
X012991Y024533D01*
X013027Y024550D01*
X013064Y024563D01*
X013102Y024572D01*
X013141Y024578D01*
X013180Y024580D01*
X013180Y025330D01*
X004180Y025330D01*
X014180Y025330D02*
X014180Y023030D01*
X023180Y023030D01*
X023180Y023780D01*
X023141Y023782D01*
X023102Y023788D01*
X023064Y023797D01*
X023027Y023810D01*
X022991Y023827D01*
X022958Y023847D01*
X022926Y023871D01*
X022897Y023897D01*
X022871Y023926D01*
X022847Y023958D01*
X022827Y023991D01*
X022810Y024027D01*
X022797Y024064D01*
X022788Y024102D01*
X022782Y024141D01*
X022780Y024180D01*
X022782Y024219D01*
X022788Y024258D01*
X022797Y024296D01*
X022810Y024333D01*
X022827Y024369D01*
X022847Y024402D01*
X022871Y024434D01*
X022897Y024463D01*
X022926Y024489D01*
X022958Y024513D01*
X022991Y024533D01*
X023027Y024550D01*
X023064Y024563D01*
X023102Y024572D01*
X023141Y024578D01*
X023180Y024580D01*
X023180Y025330D01*
X014180Y025330D01*
X015180Y028030D02*
X015180Y028780D01*
X015219Y028782D01*
X015258Y028788D01*
X015296Y028797D01*
X015333Y028810D01*
X015369Y028827D01*
X015402Y028847D01*
X015434Y028871D01*
X015463Y028897D01*
X015489Y028926D01*
X015513Y028958D01*
X015533Y028991D01*
X015550Y029027D01*
X015563Y029064D01*
X015572Y029102D01*
X015578Y029141D01*
X015580Y029180D01*
X015578Y029219D01*
X015572Y029258D01*
X015563Y029296D01*
X015550Y029333D01*
X015533Y029369D01*
X015513Y029402D01*
X015489Y029434D01*
X015463Y029463D01*
X015434Y029489D01*
X015402Y029513D01*
X015369Y029533D01*
X015333Y029550D01*
X015296Y029563D01*
X015258Y029572D01*
X015219Y029578D01*
X015180Y029580D01*
X015180Y030330D01*
X023180Y030330D01*
X023180Y028030D01*
X015180Y028030D01*
X014416Y028562D02*
X014416Y028798D01*
X013944Y028798D02*
X013944Y028562D01*
X023944Y028562D02*
X023944Y028798D01*
X024416Y028798D02*
X024416Y028562D01*
X025180Y028780D02*
X025180Y028030D01*
X033180Y028030D01*
X033180Y030330D01*
X025180Y030330D01*
X025180Y029580D01*
X025219Y029578D01*
X025258Y029572D01*
X025296Y029563D01*
X025333Y029550D01*
X025369Y029533D01*
X025402Y029513D01*
X025434Y029489D01*
X025463Y029463D01*
X025489Y029434D01*
X025513Y029402D01*
X025533Y029369D01*
X025550Y029333D01*
X025563Y029296D01*
X025572Y029258D01*
X025578Y029219D01*
X025580Y029180D01*
X025578Y029141D01*
X025572Y029102D01*
X025563Y029064D01*
X025550Y029027D01*
X025533Y028991D01*
X025513Y028958D01*
X025489Y028926D01*
X025463Y028897D01*
X025434Y028871D01*
X025402Y028847D01*
X025369Y028827D01*
X025333Y028810D01*
X025296Y028797D01*
X025258Y028788D01*
X025219Y028782D01*
X025180Y028780D01*
X024180Y025330D02*
X024180Y023030D01*
X033180Y023030D01*
X033180Y023780D01*
X033141Y023782D01*
X033102Y023788D01*
X033064Y023797D01*
X033027Y023810D01*
X032991Y023827D01*
X032958Y023847D01*
X032926Y023871D01*
X032897Y023897D01*
X032871Y023926D01*
X032847Y023958D01*
X032827Y023991D01*
X032810Y024027D01*
X032797Y024064D01*
X032788Y024102D01*
X032782Y024141D01*
X032780Y024180D01*
X032782Y024219D01*
X032788Y024258D01*
X032797Y024296D01*
X032810Y024333D01*
X032827Y024369D01*
X032847Y024402D01*
X032871Y024434D01*
X032897Y024463D01*
X032926Y024489D01*
X032958Y024513D01*
X032991Y024533D01*
X033027Y024550D01*
X033064Y024563D01*
X033102Y024572D01*
X033141Y024578D01*
X033180Y024580D01*
X033180Y025330D01*
X024180Y025330D01*
X023680Y013330D02*
X014680Y013330D01*
X014680Y012580D01*
X014719Y012578D01*
X014758Y012572D01*
X014796Y012563D01*
X014833Y012550D01*
X014869Y012533D01*
X014902Y012513D01*
X014934Y012489D01*
X014963Y012463D01*
X014989Y012434D01*
X015013Y012402D01*
X015033Y012369D01*
X015050Y012333D01*
X015063Y012296D01*
X015072Y012258D01*
X015078Y012219D01*
X015080Y012180D01*
X015078Y012141D01*
X015072Y012102D01*
X015063Y012064D01*
X015050Y012027D01*
X015033Y011991D01*
X015013Y011958D01*
X014989Y011926D01*
X014963Y011897D01*
X014934Y011871D01*
X014902Y011847D01*
X014869Y011827D01*
X014833Y011810D01*
X014796Y011797D01*
X014758Y011788D01*
X014719Y011782D01*
X014680Y011780D01*
X014680Y011030D01*
X023680Y011030D01*
X023680Y013330D01*
X024680Y013330D02*
X024680Y012580D01*
X024719Y012578D01*
X024758Y012572D01*
X024796Y012563D01*
X024833Y012550D01*
X024869Y012533D01*
X024902Y012513D01*
X024934Y012489D01*
X024963Y012463D01*
X024989Y012434D01*
X025013Y012402D01*
X025033Y012369D01*
X025050Y012333D01*
X025063Y012296D01*
X025072Y012258D01*
X025078Y012219D01*
X025080Y012180D01*
X025078Y012141D01*
X025072Y012102D01*
X025063Y012064D01*
X025050Y012027D01*
X025033Y011991D01*
X025013Y011958D01*
X024989Y011926D01*
X024963Y011897D01*
X024934Y011871D01*
X024902Y011847D01*
X024869Y011827D01*
X024833Y011810D01*
X024796Y011797D01*
X024758Y011788D01*
X024719Y011782D01*
X024680Y011780D01*
X024680Y011030D01*
X033680Y011030D01*
X033680Y013330D01*
X024680Y013330D01*
X024680Y008330D02*
X024680Y006030D01*
X032680Y006030D01*
X032680Y006780D01*
X032641Y006782D01*
X032602Y006788D01*
X032564Y006797D01*
X032527Y006810D01*
X032491Y006827D01*
X032458Y006847D01*
X032426Y006871D01*
X032397Y006897D01*
X032371Y006926D01*
X032347Y006958D01*
X032327Y006991D01*
X032310Y007027D01*
X032297Y007064D01*
X032288Y007102D01*
X032282Y007141D01*
X032280Y007180D01*
X032282Y007219D01*
X032288Y007258D01*
X032297Y007296D01*
X032310Y007333D01*
X032327Y007369D01*
X032347Y007402D01*
X032371Y007434D01*
X032397Y007463D01*
X032426Y007489D01*
X032458Y007513D01*
X032491Y007533D01*
X032527Y007550D01*
X032564Y007563D01*
X032602Y007572D01*
X032641Y007578D01*
X032680Y007580D01*
X032680Y008330D01*
X024680Y008330D01*
X023916Y007798D02*
X023916Y007562D01*
X023444Y007562D02*
X023444Y007798D01*
X022680Y007580D02*
X022680Y008330D01*
X014680Y008330D01*
X014680Y006030D01*
X022680Y006030D01*
X022680Y006780D01*
X022641Y006782D01*
X022602Y006788D01*
X022564Y006797D01*
X022527Y006810D01*
X022491Y006827D01*
X022458Y006847D01*
X022426Y006871D01*
X022397Y006897D01*
X022371Y006926D01*
X022347Y006958D01*
X022327Y006991D01*
X022310Y007027D01*
X022297Y007064D01*
X022288Y007102D01*
X022282Y007141D01*
X022280Y007180D01*
X022282Y007219D01*
X022288Y007258D01*
X022297Y007296D01*
X022310Y007333D01*
X022327Y007369D01*
X022347Y007402D01*
X022371Y007434D01*
X022397Y007463D01*
X022426Y007489D01*
X022458Y007513D01*
X022491Y007533D01*
X022527Y007550D01*
X022564Y007563D01*
X022602Y007572D01*
X022641Y007578D01*
X022680Y007580D01*
X013916Y007562D02*
X013916Y007798D01*
X013444Y007798D02*
X013444Y007562D01*
X012680Y007580D02*
X012680Y008330D01*
X004680Y008330D01*
X004680Y006030D01*
X012680Y006030D01*
X012680Y006780D01*
X012641Y006782D01*
X012602Y006788D01*
X012564Y006797D01*
X012527Y006810D01*
X012491Y006827D01*
X012458Y006847D01*
X012426Y006871D01*
X012397Y006897D01*
X012371Y006926D01*
X012347Y006958D01*
X012327Y006991D01*
X012310Y007027D01*
X012297Y007064D01*
X012288Y007102D01*
X012282Y007141D01*
X012280Y007180D01*
X012282Y007219D01*
X012288Y007258D01*
X012297Y007296D01*
X012310Y007333D01*
X012327Y007369D01*
X012347Y007402D01*
X012371Y007434D01*
X012397Y007463D01*
X012426Y007489D01*
X012458Y007513D01*
X012491Y007533D01*
X012527Y007550D01*
X012564Y007563D01*
X012602Y007572D01*
X012641Y007578D01*
X012680Y007580D01*
X013680Y011030D02*
X013680Y013330D01*
X004680Y013330D01*
X004680Y012580D01*
X004719Y012578D01*
X004758Y012572D01*
X004796Y012563D01*
X004833Y012550D01*
X004869Y012533D01*
X004902Y012513D01*
X004934Y012489D01*
X004963Y012463D01*
X004989Y012434D01*
X005013Y012402D01*
X005033Y012369D01*
X005050Y012333D01*
X005063Y012296D01*
X005072Y012258D01*
X005078Y012219D01*
X005080Y012180D01*
X005078Y012141D01*
X005072Y012102D01*
X005063Y012064D01*
X005050Y012027D01*
X005033Y011991D01*
X005013Y011958D01*
X004989Y011926D01*
X004963Y011897D01*
X004934Y011871D01*
X004902Y011847D01*
X004869Y011827D01*
X004833Y011810D01*
X004796Y011797D01*
X004758Y011788D01*
X004719Y011782D01*
X004680Y011780D01*
X004680Y011030D01*
X013680Y011030D01*
X033444Y007798D02*
X033444Y007562D01*
X033916Y007562D02*
X033916Y007798D01*
D13*
X033305Y007659D02*
X033230Y007734D01*
X033305Y007659D02*
X033305Y007509D01*
X033230Y007434D01*
X032930Y007434D01*
X032855Y007509D01*
X032855Y007659D01*
X032930Y007734D01*
X033080Y007895D02*
X033080Y008195D01*
X033305Y008120D02*
X032855Y008120D01*
X033080Y007895D01*
X033305Y007277D02*
X033305Y007127D01*
X033305Y007202D02*
X032855Y007202D01*
X032855Y007127D02*
X032855Y007277D01*
X024555Y011005D02*
X024555Y011155D01*
X024555Y011080D02*
X024105Y011080D01*
X024105Y011005D02*
X024105Y011155D01*
X024180Y011312D02*
X024480Y011312D01*
X024555Y011387D01*
X024555Y011537D01*
X024480Y011612D01*
X024555Y011772D02*
X024555Y012073D01*
X024555Y011922D02*
X024105Y011922D01*
X024255Y011772D01*
X024180Y011612D02*
X024105Y011537D01*
X024105Y011387D01*
X024180Y011312D01*
X024180Y012233D02*
X024105Y012308D01*
X024105Y012458D01*
X024180Y012533D01*
X024480Y012233D01*
X024555Y012308D01*
X024555Y012458D01*
X024480Y012533D01*
X024180Y012533D01*
X024180Y012233D02*
X024480Y012233D01*
X024087Y015846D02*
X024087Y017618D01*
X028753Y017618D01*
X028753Y015846D01*
X024087Y015846D01*
X023753Y015846D02*
X019087Y015846D01*
X019087Y017618D01*
X023753Y017618D01*
X023753Y015846D01*
X023773Y018742D02*
X023773Y020514D01*
X019107Y020514D01*
X019107Y018742D01*
X023773Y018742D01*
X024107Y018742D02*
X024107Y020514D01*
X028773Y020514D01*
X028773Y018742D01*
X024107Y018742D01*
X029107Y018742D02*
X029107Y020514D01*
X033773Y020514D01*
X033773Y018742D01*
X029107Y018742D01*
X029087Y017618D02*
X029087Y015846D01*
X033753Y015846D01*
X033753Y017618D01*
X029087Y017618D01*
X033305Y024177D02*
X033305Y024327D01*
X033305Y024252D02*
X033755Y024252D01*
X033755Y024177D02*
X033755Y024327D01*
X033680Y024484D02*
X033380Y024484D01*
X033305Y024559D01*
X033305Y024709D01*
X033380Y024784D01*
X033380Y024945D02*
X033455Y024945D01*
X033530Y025020D01*
X033530Y025245D01*
X033680Y025245D02*
X033380Y025245D01*
X033305Y025170D01*
X033305Y025020D01*
X033380Y024945D01*
X033680Y024945D02*
X033755Y025020D01*
X033755Y025170D01*
X033680Y025245D01*
X033680Y024784D02*
X033755Y024709D01*
X033755Y024559D01*
X033680Y024484D01*
X035060Y027175D02*
X035360Y027175D01*
X035435Y027250D01*
X035435Y027400D01*
X035360Y027475D01*
X035060Y027475D01*
X034985Y027400D01*
X034985Y027250D01*
X035060Y027175D01*
X034985Y027635D02*
X035360Y027635D01*
X035435Y027710D01*
X035435Y027861D01*
X035360Y027936D01*
X034985Y027936D01*
X034985Y028096D02*
X034985Y028396D01*
X034985Y028246D02*
X035435Y028246D01*
X035435Y028556D02*
X034985Y028556D01*
X034985Y028781D01*
X035060Y028856D01*
X035210Y028856D01*
X035285Y028781D01*
X035285Y028556D01*
X035360Y029017D02*
X034985Y029017D01*
X034985Y029317D02*
X035360Y029317D01*
X035435Y029242D01*
X035435Y029092D01*
X035360Y029017D01*
X034985Y029477D02*
X034985Y029777D01*
X034985Y029627D02*
X035435Y029627D01*
X025005Y029048D02*
X025005Y028897D01*
X024930Y028822D01*
X024930Y028662D02*
X025005Y028587D01*
X025005Y028437D01*
X024930Y028362D01*
X024630Y028362D01*
X024555Y028437D01*
X024555Y028587D01*
X024630Y028662D01*
X024630Y028822D02*
X024555Y028897D01*
X024555Y029048D01*
X024630Y029123D01*
X024705Y029123D01*
X024780Y029048D01*
X024855Y029123D01*
X024930Y029123D01*
X025005Y029048D01*
X024780Y029048D02*
X024780Y028972D01*
X025005Y028205D02*
X025005Y028055D01*
X025005Y028130D02*
X024555Y028130D01*
X024555Y028055D02*
X024555Y028205D01*
X023680Y025245D02*
X023605Y025245D01*
X023530Y025170D01*
X023530Y025020D01*
X023455Y024945D01*
X023380Y024945D01*
X023305Y025020D01*
X023305Y025170D01*
X023380Y025245D01*
X023455Y025245D01*
X023530Y025170D01*
X023530Y025020D02*
X023605Y024945D01*
X023680Y024945D01*
X023755Y025020D01*
X023755Y025170D01*
X023680Y025245D01*
X023680Y024784D02*
X023755Y024709D01*
X023755Y024559D01*
X023680Y024484D01*
X023380Y024484D01*
X023305Y024559D01*
X023305Y024709D01*
X023380Y024784D01*
X023305Y024327D02*
X023305Y024177D01*
X023305Y024252D02*
X023755Y024252D01*
X023755Y024177D02*
X023755Y024327D01*
X018773Y020514D02*
X018773Y018742D01*
X014107Y018742D01*
X014107Y020514D01*
X018773Y020514D01*
X018753Y017618D02*
X018753Y015846D01*
X014087Y015846D01*
X014087Y017618D01*
X018753Y017618D01*
X013753Y017618D02*
X013753Y015846D01*
X009087Y015846D01*
X009087Y017618D01*
X013753Y017618D01*
X013773Y018742D02*
X013773Y020514D01*
X009107Y020514D01*
X009107Y018742D01*
X013773Y018742D01*
X008773Y018742D02*
X008773Y020514D01*
X004107Y020514D01*
X004107Y018742D01*
X008773Y018742D01*
X008753Y017618D02*
X008753Y015846D01*
X004087Y015846D01*
X004087Y017618D01*
X008753Y017618D01*
X004555Y012533D02*
X004555Y012233D01*
X004255Y012533D01*
X004180Y012533D01*
X004105Y012458D01*
X004105Y012308D01*
X004180Y012233D01*
X004105Y011922D02*
X004555Y011922D01*
X004555Y011772D02*
X004555Y012073D01*
X004255Y011772D02*
X004105Y011922D01*
X004180Y011612D02*
X004105Y011537D01*
X004105Y011387D01*
X004180Y011312D01*
X004480Y011312D01*
X004555Y011387D01*
X004555Y011537D01*
X004480Y011612D01*
X004555Y011155D02*
X004555Y011005D01*
X004555Y011080D02*
X004105Y011080D01*
X004105Y011005D02*
X004105Y011155D01*
X012855Y008195D02*
X012930Y008045D01*
X013080Y007895D01*
X013080Y008120D01*
X013155Y008195D01*
X013230Y008195D01*
X013305Y008120D01*
X013305Y007970D01*
X013230Y007895D01*
X013080Y007895D01*
X013230Y007734D02*
X013305Y007659D01*
X013305Y007509D01*
X013230Y007434D01*
X012930Y007434D01*
X012855Y007509D01*
X012855Y007659D01*
X012930Y007734D01*
X012855Y007277D02*
X012855Y007127D01*
X012855Y007202D02*
X013305Y007202D01*
X013305Y007127D02*
X013305Y007277D01*
X014105Y011005D02*
X014105Y011155D01*
X014105Y011080D02*
X014555Y011080D01*
X014555Y011005D02*
X014555Y011155D01*
X014480Y011312D02*
X014555Y011387D01*
X014555Y011537D01*
X014480Y011612D01*
X014555Y011772D02*
X014555Y012073D01*
X014555Y011922D02*
X014105Y011922D01*
X014255Y011772D01*
X014180Y011612D02*
X014105Y011537D01*
X014105Y011387D01*
X014180Y011312D01*
X014480Y011312D01*
X014555Y012233D02*
X014555Y012533D01*
X014555Y012383D02*
X014105Y012383D01*
X014255Y012233D01*
X022855Y008195D02*
X022855Y007895D01*
X023080Y007895D01*
X023005Y008045D01*
X023005Y008120D01*
X023080Y008195D01*
X023230Y008195D01*
X023305Y008120D01*
X023305Y007970D01*
X023230Y007895D01*
X023230Y007734D02*
X023305Y007659D01*
X023305Y007509D01*
X023230Y007434D01*
X022930Y007434D01*
X022855Y007509D01*
X022855Y007659D01*
X022930Y007734D01*
X022855Y007277D02*
X022855Y007127D01*
X022855Y007202D02*
X023305Y007202D01*
X023305Y007127D02*
X023305Y007277D01*
X013755Y024177D02*
X013755Y024327D01*
X013755Y024252D02*
X013305Y024252D01*
X013305Y024177D02*
X013305Y024327D01*
X013380Y024484D02*
X013680Y024484D01*
X013755Y024559D01*
X013755Y024709D01*
X013680Y024784D01*
X013680Y024945D02*
X013755Y024945D01*
X013680Y024945D02*
X013380Y025245D01*
X013305Y025245D01*
X013305Y024945D01*
X013380Y024784D02*
X013305Y024709D01*
X013305Y024559D01*
X013380Y024484D01*
X014555Y028055D02*
X014555Y028205D01*
X014555Y028130D02*
X015005Y028130D01*
X015005Y028055D02*
X015005Y028205D01*
X014930Y028362D02*
X015005Y028437D01*
X015005Y028587D01*
X014930Y028662D01*
X015005Y028822D02*
X014705Y029123D01*
X014630Y029123D01*
X014555Y029048D01*
X014555Y028897D01*
X014630Y028822D01*
X014630Y028662D02*
X014555Y028587D01*
X014555Y028437D01*
X014630Y028362D01*
X014930Y028362D01*
X015005Y028822D02*
X015005Y029123D01*
X005005Y029123D02*
X005005Y028822D01*
X005005Y028972D02*
X004555Y028972D01*
X004705Y028822D01*
X004630Y028662D02*
X004555Y028587D01*
X004555Y028437D01*
X004630Y028362D01*
X004930Y028362D01*
X005005Y028437D01*
X005005Y028587D01*
X004930Y028662D01*
X005005Y028205D02*
X005005Y028055D01*
X005005Y028130D02*
X004555Y028130D01*
X004555Y028055D02*
X004555Y028205D01*
X001435Y027942D02*
X000985Y027942D01*
X000985Y028168D01*
X001060Y028243D01*
X001210Y028243D01*
X001285Y028168D01*
X001285Y027942D01*
X001435Y027782D02*
X000985Y027782D01*
X000985Y027482D02*
X001435Y027782D01*
X001435Y027482D02*
X000985Y027482D01*
X000985Y027325D02*
X000985Y027175D01*
X000985Y027250D02*
X001435Y027250D01*
X001435Y027175D02*
X001435Y027325D01*
X001360Y028403D02*
X000985Y028403D01*
X000985Y028703D02*
X001360Y028703D01*
X001435Y028628D01*
X001435Y028478D01*
X001360Y028403D01*
X000985Y028863D02*
X000985Y029163D01*
X000985Y029013D02*
X001435Y029013D01*
D14*
X004510Y028913D02*
X004585Y028838D01*
X004585Y028938D01*
X004660Y028913D02*
X004510Y028913D01*
X004535Y028790D02*
X004510Y028765D01*
X004510Y028715D01*
X004535Y028690D01*
X004635Y028690D01*
X004660Y028715D01*
X004660Y028765D01*
X004635Y028790D01*
X014510Y028765D02*
X014510Y028715D01*
X014535Y028690D01*
X014635Y028690D01*
X014660Y028715D01*
X014660Y028765D01*
X014635Y028790D01*
X014660Y028838D02*
X014660Y028938D01*
X014660Y028888D02*
X014510Y028888D01*
X014560Y028838D01*
X014535Y028790D02*
X014510Y028765D01*
X024510Y028765D02*
X024510Y028715D01*
X024535Y028690D01*
X024635Y028690D01*
X024660Y028715D01*
X024660Y028765D01*
X024635Y028790D01*
X024660Y028838D02*
X024560Y028938D01*
X024535Y028938D01*
X024510Y028913D01*
X024510Y028863D01*
X024535Y028838D01*
X024535Y028790D02*
X024510Y028765D01*
X024660Y028838D02*
X024660Y028938D01*
X023325Y007632D02*
X023300Y007632D01*
X023275Y007607D01*
X023275Y007532D01*
X023325Y007532D01*
X023350Y007557D01*
X023350Y007607D01*
X023325Y007632D01*
X023225Y007582D02*
X023275Y007532D01*
X023325Y007485D02*
X023350Y007460D01*
X023350Y007410D01*
X023325Y007385D01*
X023225Y007385D01*
X023200Y007410D01*
X023200Y007460D01*
X023225Y007485D01*
X023225Y007582D02*
X023200Y007632D01*
X013350Y007607D02*
X013350Y007557D01*
X013325Y007532D01*
X013325Y007485D02*
X013350Y007460D01*
X013350Y007410D01*
X013325Y007385D01*
X013225Y007385D01*
X013200Y007410D01*
X013200Y007460D01*
X013225Y007485D01*
X013200Y007532D02*
X013275Y007532D01*
X013250Y007582D01*
X013250Y007607D01*
X013275Y007632D01*
X013325Y007632D01*
X013350Y007607D01*
X013200Y007632D02*
X013200Y007532D01*
X033200Y007557D02*
X033200Y007607D01*
X033225Y007632D01*
X033250Y007632D01*
X033275Y007607D01*
X033300Y007632D01*
X033325Y007632D01*
X033350Y007607D01*
X033350Y007557D01*
X033325Y007532D01*
X033325Y007485D02*
X033350Y007460D01*
X033350Y007410D01*
X033325Y007385D01*
X033225Y007385D01*
X033200Y007410D01*
X033200Y007460D01*
X033225Y007485D01*
X033225Y007532D02*
X033200Y007557D01*
X033275Y007582D02*
X033275Y007607D01*
D15*
X031430Y015945D03*
X026430Y015945D03*
X021430Y015945D03*
X016430Y015945D03*
X011430Y015945D03*
X006430Y015945D03*
X006430Y020415D03*
X011430Y020415D03*
X016430Y020415D03*
X021430Y020415D03*
X026430Y020415D03*
X031430Y020415D03*
D16*
X029848Y020019D02*
X029654Y020019D01*
X029751Y020019D02*
X029751Y020309D01*
X029654Y020212D01*
X031348Y018609D02*
X031348Y018367D01*
X031397Y018319D01*
X031494Y018319D01*
X031542Y018367D01*
X031542Y018609D01*
X031643Y018561D02*
X031691Y018609D01*
X031788Y018609D01*
X031837Y018561D01*
X031788Y018464D02*
X031691Y018464D01*
X031643Y018512D01*
X031643Y018561D01*
X031740Y018658D02*
X031740Y018271D01*
X031788Y018319D02*
X031837Y018367D01*
X031837Y018416D01*
X031788Y018464D01*
X031788Y018319D02*
X031691Y018319D01*
X031643Y018367D01*
X031938Y018367D02*
X031986Y018319D01*
X032083Y018319D01*
X032131Y018367D01*
X032131Y018416D01*
X032083Y018464D01*
X031938Y018464D01*
X031938Y018367D01*
X031938Y018464D02*
X032034Y018561D01*
X032131Y018609D01*
X031440Y018041D02*
X031440Y017993D01*
X031247Y017799D01*
X031247Y017751D01*
X031146Y017799D02*
X031146Y017848D01*
X031097Y017896D01*
X031001Y017896D01*
X030952Y017945D01*
X030952Y017993D01*
X031001Y018041D01*
X031097Y018041D01*
X031146Y017993D01*
X031247Y018041D02*
X031440Y018041D01*
X031146Y017799D02*
X031097Y017751D01*
X031001Y017751D01*
X030952Y017799D01*
X030851Y017799D02*
X030851Y018041D01*
X030658Y018041D02*
X030658Y017799D01*
X030706Y017751D01*
X030803Y017751D01*
X030851Y017799D01*
X031049Y017703D02*
X031049Y018090D01*
X032941Y016245D02*
X033038Y016342D01*
X033038Y016051D01*
X032941Y016051D02*
X033135Y016051D01*
X028135Y016051D02*
X027941Y016051D01*
X028038Y016051D02*
X028038Y016342D01*
X027941Y016245D01*
X026392Y017751D02*
X026295Y017751D01*
X026247Y017799D01*
X026247Y017848D01*
X026295Y017896D01*
X026392Y017896D01*
X026440Y017848D01*
X026440Y017799D01*
X026392Y017751D01*
X026392Y017896D02*
X026440Y017945D01*
X026440Y017993D01*
X026392Y018041D01*
X026295Y018041D01*
X026247Y017993D01*
X026247Y017945D01*
X026295Y017896D01*
X026146Y017848D02*
X026097Y017896D01*
X026001Y017896D01*
X025952Y017945D01*
X025952Y017993D01*
X026001Y018041D01*
X026097Y018041D01*
X026146Y017993D01*
X026049Y018090D02*
X026049Y017703D01*
X026097Y017751D02*
X026146Y017799D01*
X026146Y017848D01*
X026097Y017751D02*
X026001Y017751D01*
X025952Y017799D01*
X025851Y017799D02*
X025851Y018041D01*
X025658Y018041D02*
X025658Y017799D01*
X025706Y017751D01*
X025803Y017751D01*
X025851Y017799D01*
X026397Y018319D02*
X026494Y018319D01*
X026542Y018367D01*
X026542Y018609D01*
X026643Y018561D02*
X026691Y018609D01*
X026788Y018609D01*
X026837Y018561D01*
X026788Y018464D02*
X026837Y018416D01*
X026837Y018367D01*
X026788Y018319D01*
X026691Y018319D01*
X026643Y018367D01*
X026691Y018464D02*
X026643Y018512D01*
X026643Y018561D01*
X026691Y018464D02*
X026788Y018464D01*
X026938Y018464D02*
X027034Y018512D01*
X027083Y018512D01*
X027131Y018464D01*
X027131Y018367D01*
X027083Y018319D01*
X026986Y018319D01*
X026938Y018367D01*
X026938Y018464D02*
X026938Y018609D01*
X027131Y018609D01*
X026740Y018658D02*
X026740Y018271D01*
X026397Y018319D02*
X026348Y018367D01*
X026348Y018609D01*
X024848Y020019D02*
X024654Y020019D01*
X024751Y020019D02*
X024751Y020309D01*
X024654Y020212D01*
X022083Y018609D02*
X022083Y018319D01*
X022131Y018464D02*
X021938Y018464D01*
X022083Y018609D01*
X021837Y018561D02*
X021788Y018609D01*
X021691Y018609D01*
X021643Y018561D01*
X021643Y018512D01*
X021691Y018464D01*
X021788Y018464D01*
X021837Y018416D01*
X021837Y018367D01*
X021788Y018319D01*
X021691Y018319D01*
X021643Y018367D01*
X021542Y018367D02*
X021542Y018609D01*
X021348Y018609D02*
X021348Y018367D01*
X021397Y018319D01*
X021494Y018319D01*
X021542Y018367D01*
X021740Y018271D02*
X021740Y018658D01*
X021392Y018041D02*
X021295Y018041D01*
X021247Y017993D01*
X021247Y017945D01*
X021295Y017896D01*
X021440Y017896D01*
X021440Y017799D02*
X021440Y017993D01*
X021392Y018041D01*
X021440Y017799D02*
X021392Y017751D01*
X021295Y017751D01*
X021247Y017799D01*
X021146Y017799D02*
X021146Y017848D01*
X021097Y017896D01*
X021001Y017896D01*
X020952Y017945D01*
X020952Y017993D01*
X021001Y018041D01*
X021097Y018041D01*
X021146Y017993D01*
X021049Y018090D02*
X021049Y017703D01*
X021097Y017751D02*
X021146Y017799D01*
X021097Y017751D02*
X021001Y017751D01*
X020952Y017799D01*
X020851Y017799D02*
X020851Y018041D01*
X020658Y018041D02*
X020658Y017799D01*
X020706Y017751D01*
X020803Y017751D01*
X020851Y017799D01*
X022941Y016245D02*
X023038Y016342D01*
X023038Y016051D01*
X022941Y016051D02*
X023135Y016051D01*
X018135Y016051D02*
X017941Y016051D01*
X018038Y016051D02*
X018038Y016342D01*
X017941Y016245D01*
X016687Y017751D02*
X016590Y017751D01*
X016542Y017799D01*
X016735Y017993D01*
X016735Y017799D01*
X016687Y017751D01*
X016542Y017799D02*
X016542Y017993D01*
X016590Y018041D01*
X016687Y018041D01*
X016735Y017993D01*
X016740Y018271D02*
X016740Y018658D01*
X016788Y018609D02*
X016837Y018561D01*
X016788Y018609D02*
X016691Y018609D01*
X016643Y018561D01*
X016643Y018512D01*
X016691Y018464D01*
X016788Y018464D01*
X016837Y018416D01*
X016837Y018367D01*
X016788Y018319D01*
X016691Y018319D01*
X016643Y018367D01*
X016542Y018367D02*
X016494Y018319D01*
X016397Y018319D01*
X016348Y018367D01*
X016348Y018609D01*
X016542Y018609D02*
X016542Y018367D01*
X016344Y018041D02*
X016344Y017751D01*
X016440Y017751D02*
X016247Y017751D01*
X016146Y017799D02*
X016146Y017848D01*
X016097Y017896D01*
X016001Y017896D01*
X015952Y017945D01*
X015952Y017993D01*
X016001Y018041D01*
X016097Y018041D01*
X016146Y017993D01*
X016247Y017945D02*
X016344Y018041D01*
X016049Y018090D02*
X016049Y017703D01*
X016097Y017751D02*
X016146Y017799D01*
X016097Y017751D02*
X016001Y017751D01*
X015952Y017799D01*
X015851Y017799D02*
X015851Y018041D01*
X015658Y018041D02*
X015658Y017799D01*
X015706Y017751D01*
X015803Y017751D01*
X015851Y017799D01*
X016938Y018367D02*
X016986Y018319D01*
X017083Y018319D01*
X017131Y018367D01*
X017131Y018416D01*
X017083Y018464D01*
X017034Y018464D01*
X017083Y018464D02*
X017131Y018512D01*
X017131Y018561D01*
X017083Y018609D01*
X016986Y018609D01*
X016938Y018561D01*
X014848Y020019D02*
X014654Y020019D01*
X014751Y020019D02*
X014751Y020309D01*
X014654Y020212D01*
X012131Y018561D02*
X012083Y018609D01*
X011986Y018609D01*
X011938Y018561D01*
X011837Y018561D02*
X011788Y018609D01*
X011691Y018609D01*
X011643Y018561D01*
X011643Y018512D01*
X011691Y018464D01*
X011788Y018464D01*
X011837Y018416D01*
X011837Y018367D01*
X011788Y018319D01*
X011691Y018319D01*
X011643Y018367D01*
X011542Y018367D02*
X011542Y018609D01*
X011348Y018609D02*
X011348Y018367D01*
X011397Y018319D01*
X011494Y018319D01*
X011542Y018367D01*
X011740Y018271D02*
X011740Y018658D01*
X011938Y018319D02*
X012131Y018512D01*
X012131Y018561D01*
X012131Y018319D02*
X011938Y018319D01*
X011638Y018041D02*
X011638Y017751D01*
X011542Y017751D02*
X011735Y017751D01*
X011542Y017945D02*
X011638Y018041D01*
X011344Y018041D02*
X011344Y017751D01*
X011440Y017751D02*
X011247Y017751D01*
X011146Y017799D02*
X011146Y017848D01*
X011097Y017896D01*
X011001Y017896D01*
X010952Y017945D01*
X010952Y017993D01*
X011001Y018041D01*
X011097Y018041D01*
X011146Y017993D01*
X011247Y017945D02*
X011344Y018041D01*
X011049Y018090D02*
X011049Y017703D01*
X011097Y017751D02*
X011146Y017799D01*
X011097Y017751D02*
X011001Y017751D01*
X010952Y017799D01*
X010851Y017799D02*
X010851Y018041D01*
X010658Y018041D02*
X010658Y017799D01*
X010706Y017751D01*
X010803Y017751D01*
X010851Y017799D01*
X012941Y016245D02*
X013038Y016342D01*
X013038Y016051D01*
X012941Y016051D02*
X013135Y016051D01*
X009848Y020019D02*
X009654Y020019D01*
X009751Y020019D02*
X009751Y020309D01*
X009654Y020212D01*
X007131Y018319D02*
X006938Y018319D01*
X007034Y018319D02*
X007034Y018609D01*
X006938Y018512D01*
X006837Y018561D02*
X006788Y018609D01*
X006691Y018609D01*
X006643Y018561D01*
X006643Y018512D01*
X006691Y018464D01*
X006788Y018464D01*
X006837Y018416D01*
X006837Y018367D01*
X006788Y018319D01*
X006691Y018319D01*
X006643Y018367D01*
X006542Y018367D02*
X006542Y018609D01*
X006348Y018609D02*
X006348Y018367D01*
X006397Y018319D01*
X006494Y018319D01*
X006542Y018367D01*
X006740Y018271D02*
X006740Y018658D01*
X006687Y018041D02*
X006590Y018041D01*
X006542Y017993D01*
X006687Y018041D02*
X006735Y017993D01*
X006735Y017945D01*
X006542Y017751D01*
X006735Y017751D01*
X006440Y017751D02*
X006247Y017751D01*
X006344Y017751D02*
X006344Y018041D01*
X006247Y017945D01*
X006146Y017993D02*
X006097Y018041D01*
X006001Y018041D01*
X005952Y017993D01*
X005952Y017945D01*
X006001Y017896D01*
X006097Y017896D01*
X006146Y017848D01*
X006146Y017799D01*
X006097Y017751D01*
X006001Y017751D01*
X005952Y017799D01*
X005851Y017799D02*
X005851Y018041D01*
X005658Y018041D02*
X005658Y017799D01*
X005706Y017751D01*
X005803Y017751D01*
X005851Y017799D01*
X006049Y017703D02*
X006049Y018090D01*
X004848Y020019D02*
X004654Y020019D01*
X004751Y020019D02*
X004751Y020309D01*
X004654Y020212D01*
X008038Y016342D02*
X008038Y016051D01*
X007941Y016051D02*
X008135Y016051D01*
X007941Y016245D02*
X008038Y016342D01*
X019654Y020019D02*
X019848Y020019D01*
X019751Y020019D02*
X019751Y020309D01*
X019654Y020212D01*
M02*
