G75*
%MOIN*%
%OFA0B0*%
%FSLAX24Y24*%
%IPPOS*%
%LPD*%
%AMOC8*
5,1,8,0,0,1.08239X$1,22.5*
%
%ADD10C,0.0000*%
%ADD11C,0.0080*%
%ADD12C,0.0060*%
%ADD13C,0.0050*%
%ADD14C,0.0100*%
%ADD15C,0.0040*%
%ADD16C,0.0010*%
D10*
X000532Y000180D02*
X000532Y033176D01*
X039652Y033176D01*
X039652Y000180D01*
X000532Y000180D01*
D11*
X003072Y001220D02*
X003072Y002141D01*
X003225Y001834D02*
X003072Y001680D01*
X003225Y001834D02*
X003532Y001834D01*
X003686Y001680D01*
X003686Y001220D01*
X004146Y001373D02*
X004300Y001220D01*
X004146Y001373D02*
X004146Y001987D01*
X003993Y001834D02*
X004300Y001834D01*
X004607Y001834D02*
X004913Y001834D01*
X004760Y001987D02*
X004760Y001373D01*
X004913Y001220D01*
X005220Y001220D02*
X005681Y001220D01*
X005834Y001373D01*
X005834Y001680D01*
X005681Y001834D01*
X005220Y001834D01*
X005220Y000913D01*
X006141Y001220D02*
X006602Y001220D01*
X006755Y001373D01*
X006602Y001527D01*
X006295Y001527D01*
X006141Y001680D01*
X006295Y001834D01*
X006755Y001834D01*
X007062Y001834D02*
X007062Y001680D01*
X007215Y001680D01*
X007215Y001834D01*
X007062Y001834D01*
X007062Y001373D02*
X007062Y001220D01*
X007215Y001220D01*
X007215Y001373D01*
X007062Y001373D01*
X007522Y001220D02*
X008136Y002141D01*
X009057Y002141D02*
X008443Y001220D01*
X009364Y001373D02*
X009364Y001680D01*
X009517Y001834D01*
X009978Y001834D01*
X009978Y001067D01*
X009824Y000913D01*
X009671Y000913D01*
X009517Y001220D02*
X009978Y001220D01*
X010285Y001220D02*
X010592Y001220D01*
X010438Y001220D02*
X010438Y001834D01*
X010285Y001834D01*
X010438Y002141D02*
X010438Y002294D01*
X010899Y001834D02*
X011206Y001834D01*
X011052Y001987D02*
X011052Y001373D01*
X011206Y001220D01*
X011512Y001220D02*
X011512Y002141D01*
X011666Y001834D02*
X011512Y001680D01*
X011666Y001834D02*
X011973Y001834D01*
X012126Y001680D01*
X012126Y001220D01*
X012433Y001373D02*
X012587Y001220D01*
X013047Y001220D01*
X013047Y001834D01*
X013354Y001834D02*
X013814Y001834D01*
X013968Y001680D01*
X013968Y001373D01*
X013814Y001220D01*
X013354Y001220D01*
X013354Y002141D01*
X013661Y002913D02*
X013661Y003834D01*
X014121Y003834D01*
X014275Y003680D01*
X014275Y003373D01*
X014121Y003220D01*
X013661Y003220D01*
X013354Y003373D02*
X013201Y003220D01*
X012740Y003220D01*
X012740Y002913D02*
X012740Y003834D01*
X013201Y003834D01*
X013354Y003680D01*
X013354Y003373D01*
X012433Y003527D02*
X011819Y003527D01*
X011819Y003680D02*
X011819Y003373D01*
X011973Y003220D01*
X012280Y003220D01*
X012433Y003527D02*
X012433Y003680D01*
X012280Y003834D01*
X011973Y003834D01*
X011819Y003680D01*
X011512Y003834D02*
X011206Y003834D01*
X011359Y003987D02*
X011359Y003373D01*
X011512Y003220D01*
X010899Y003373D02*
X010745Y003220D01*
X010438Y003220D01*
X010285Y003373D01*
X010438Y003680D02*
X010285Y003834D01*
X010285Y003987D01*
X010438Y004141D01*
X010745Y004141D01*
X010899Y003987D01*
X010745Y003680D02*
X010899Y003527D01*
X010899Y003373D01*
X010745Y003680D02*
X010438Y003680D01*
X009057Y003834D02*
X008597Y003834D01*
X008443Y003680D01*
X008443Y003373D01*
X008597Y003220D01*
X009057Y003220D01*
X009057Y004141D01*
X008136Y003680D02*
X008136Y003527D01*
X007522Y003527D01*
X007522Y003680D02*
X007522Y003373D01*
X007676Y003220D01*
X007983Y003220D01*
X008136Y003680D02*
X007983Y003834D01*
X007676Y003834D01*
X007522Y003680D01*
X007215Y003834D02*
X007062Y003834D01*
X006755Y003527D01*
X006755Y003220D02*
X006755Y003834D01*
X006448Y003834D02*
X005988Y003834D01*
X005834Y003680D01*
X005834Y003373D01*
X005988Y003220D01*
X006448Y003220D01*
X006448Y004141D01*
X005527Y003680D02*
X005527Y003220D01*
X004914Y003220D02*
X004914Y003834D01*
X005374Y003834D01*
X005527Y003680D01*
X004607Y003834D02*
X004607Y003220D01*
X004146Y003220D01*
X003993Y003373D01*
X003993Y003834D01*
X003686Y003680D02*
X003072Y003680D01*
X003072Y003220D02*
X003072Y004141D01*
X003686Y004141D02*
X003686Y003220D01*
X009364Y001373D02*
X009517Y001220D01*
X012433Y001373D02*
X012433Y001834D01*
X014275Y001373D02*
X014275Y001220D01*
X014428Y001220D01*
X014428Y001373D01*
X014275Y001373D01*
X014735Y001373D02*
X014889Y001220D01*
X015349Y001220D01*
X015656Y001373D02*
X015809Y001220D01*
X016116Y001220D01*
X016270Y001373D01*
X016270Y001680D01*
X016116Y001834D01*
X015809Y001834D01*
X015656Y001680D01*
X015656Y001373D01*
X015349Y001834D02*
X014889Y001834D01*
X014735Y001680D01*
X014735Y001373D01*
X016577Y001220D02*
X016577Y001834D01*
X016730Y001834D01*
X016884Y001680D01*
X017037Y001834D01*
X017191Y001680D01*
X017191Y001220D01*
X017498Y001220D02*
X018111Y002141D01*
X018418Y002141D02*
X018418Y001220D01*
X019032Y001220D02*
X019032Y001680D01*
X018879Y001834D01*
X018572Y001834D01*
X018418Y001680D01*
X019339Y001373D02*
X019493Y001527D01*
X019953Y001527D01*
X019953Y001680D02*
X019800Y001834D01*
X019493Y001834D01*
X019953Y001680D02*
X019953Y001220D01*
X019493Y001220D01*
X019339Y001373D01*
X020260Y001220D02*
X020260Y001834D01*
X020720Y001834D01*
X020874Y001680D01*
X020874Y001220D01*
X021181Y001220D02*
X021181Y002141D01*
X021641Y001834D02*
X021181Y001527D01*
X021641Y001220D01*
X021948Y001220D02*
X022408Y001220D01*
X022562Y001373D01*
X022408Y001527D01*
X022102Y001527D01*
X021948Y001680D01*
X022102Y001834D01*
X022562Y001834D01*
X022869Y001680D02*
X022869Y001373D01*
X023022Y001220D01*
X023329Y001220D01*
X023483Y001373D01*
X023483Y001680D01*
X023329Y001834D01*
X023022Y001834D01*
X022869Y001680D01*
X023790Y001220D02*
X024403Y002141D01*
X024710Y002141D02*
X024710Y001220D01*
X025324Y001220D02*
X025324Y002141D01*
X025631Y001834D02*
X025631Y001373D01*
X025785Y001220D01*
X026245Y001220D01*
X026245Y001834D01*
X026552Y001834D02*
X027012Y001834D01*
X027166Y001680D01*
X027166Y001220D01*
X027473Y001373D02*
X027473Y001680D01*
X027626Y001834D01*
X028087Y001834D01*
X028394Y001834D02*
X028394Y001220D01*
X028394Y001527D02*
X028700Y001834D01*
X028854Y001834D01*
X029161Y001680D02*
X029161Y001373D01*
X029314Y001220D01*
X029621Y001220D01*
X029775Y001527D02*
X029161Y001527D01*
X029161Y001680D02*
X029314Y001834D01*
X029621Y001834D01*
X029775Y001680D01*
X029775Y001527D01*
X030082Y001680D02*
X030235Y001834D01*
X030696Y001834D01*
X030696Y002141D02*
X030696Y001220D01*
X030235Y001220D01*
X030082Y001373D01*
X030082Y001680D01*
X031002Y001067D02*
X031616Y001067D01*
X031923Y001373D02*
X032077Y001220D01*
X032384Y001220D01*
X032537Y001373D01*
X032537Y001527D01*
X032384Y001680D01*
X032077Y001680D01*
X031923Y001834D01*
X031923Y001987D01*
X032077Y002141D01*
X032384Y002141D01*
X032537Y001987D01*
X032844Y001834D02*
X033151Y001834D01*
X032997Y001987D02*
X032997Y001373D01*
X033151Y001220D01*
X033458Y001373D02*
X033458Y001680D01*
X033611Y001834D01*
X033918Y001834D01*
X034072Y001680D01*
X034072Y001527D01*
X033458Y001527D01*
X033458Y001373D02*
X033611Y001220D01*
X033918Y001220D01*
X034379Y001220D02*
X034839Y001220D01*
X034993Y001373D01*
X034993Y001680D01*
X034839Y001834D01*
X034379Y001834D01*
X034379Y000913D01*
X035299Y000913D02*
X035299Y001834D01*
X035760Y001834D01*
X035913Y001680D01*
X035913Y001373D01*
X035760Y001220D01*
X035299Y001220D01*
X036220Y001373D02*
X036374Y001220D01*
X036681Y001220D01*
X036834Y001527D02*
X036220Y001527D01*
X036220Y001680D02*
X036220Y001373D01*
X036220Y001680D02*
X036374Y001834D01*
X036681Y001834D01*
X036834Y001680D01*
X036834Y001527D01*
X037141Y001527D02*
X037448Y001834D01*
X037601Y001834D01*
X037908Y001680D02*
X038062Y001527D01*
X038369Y001527D01*
X038522Y001373D01*
X038369Y001220D01*
X037908Y001220D01*
X037908Y001680D02*
X038062Y001834D01*
X038522Y001834D01*
X037141Y001834D02*
X037141Y001220D01*
X030082Y003220D02*
X029621Y003527D01*
X030082Y003834D01*
X029621Y004141D02*
X029621Y003220D01*
X029314Y003220D02*
X029314Y003680D01*
X029161Y003834D01*
X028700Y003834D01*
X028700Y003220D01*
X028394Y003220D02*
X027933Y003220D01*
X027780Y003373D01*
X027933Y003527D01*
X028394Y003527D01*
X028394Y003680D02*
X028394Y003220D01*
X028394Y003680D02*
X028240Y003834D01*
X027933Y003834D01*
X027473Y003680D02*
X026859Y003680D01*
X026859Y003220D02*
X026859Y004141D01*
X027473Y004141D02*
X027473Y003220D01*
X028087Y002141D02*
X028087Y001220D01*
X027626Y001220D01*
X027473Y001373D01*
X026552Y001220D02*
X026552Y001834D01*
X025324Y001680D02*
X024710Y001680D01*
X025324Y002913D02*
X025478Y002913D01*
X025631Y003067D01*
X025631Y003834D01*
X025017Y003834D02*
X025017Y003373D01*
X025171Y003220D01*
X025631Y003220D01*
X024710Y003373D02*
X024710Y003680D01*
X024557Y003834D01*
X024097Y003834D01*
X024097Y004141D02*
X024097Y003220D01*
X024557Y003220D01*
X024710Y003373D01*
X021027Y003220D02*
X020413Y003220D01*
X021027Y003834D01*
X021027Y003987D01*
X020874Y004141D01*
X020567Y004141D01*
X020413Y003987D01*
X020106Y003373D02*
X020106Y003220D01*
X019953Y003220D01*
X019953Y003373D01*
X020106Y003373D01*
X019646Y003373D02*
X019493Y003220D01*
X019186Y003220D01*
X019032Y003373D01*
X019646Y003987D01*
X019646Y003373D01*
X019646Y003987D02*
X019493Y004141D01*
X019186Y004141D01*
X019032Y003987D01*
X019032Y003373D01*
X018725Y003834D02*
X018418Y003220D01*
X018111Y003834D01*
X016884Y003834D02*
X016423Y003834D01*
X016270Y003680D01*
X016423Y003527D01*
X016730Y003527D01*
X016884Y003373D01*
X016730Y003220D01*
X016270Y003220D01*
X015963Y003834D02*
X015809Y003834D01*
X015503Y003527D01*
X015503Y003220D02*
X015503Y003834D01*
X015196Y003680D02*
X015196Y003527D01*
X014582Y003527D01*
X014582Y003680D02*
X014582Y003373D01*
X014735Y003220D01*
X015042Y003220D01*
X015196Y003680D02*
X015042Y003834D01*
X014735Y003834D01*
X014582Y003680D01*
X016884Y001680D02*
X016884Y001220D01*
X002782Y027180D02*
X002282Y027180D01*
X002032Y027430D01*
X002032Y027930D01*
X002282Y028180D01*
X002032Y028430D01*
X002032Y028930D01*
X002282Y029180D01*
X002032Y029430D01*
X002032Y029930D01*
X002282Y030180D01*
X002032Y030430D01*
X002032Y030930D01*
X002282Y031180D01*
X002032Y031430D01*
X002032Y031930D01*
X002282Y032180D01*
X002782Y032180D01*
X003032Y031930D01*
X003032Y031430D01*
X002782Y031180D01*
X003032Y030930D01*
X003032Y030430D01*
X002782Y030180D01*
X003032Y029930D01*
X003032Y029430D01*
X002782Y029180D01*
X003032Y028930D01*
X003032Y028430D01*
X002782Y028180D01*
X003032Y027930D01*
X003032Y027430D01*
X002782Y027180D01*
X036032Y027430D02*
X036282Y027180D01*
X036782Y027180D01*
X037032Y027430D01*
X037032Y027930D01*
X036782Y028180D01*
X037032Y028430D01*
X037032Y028930D01*
X036782Y029180D01*
X037032Y029430D01*
X037032Y029930D01*
X036782Y030180D01*
X037032Y030430D01*
X037032Y030930D01*
X036782Y031180D01*
X037032Y031430D01*
X037032Y031930D01*
X036782Y032180D01*
X036282Y032180D01*
X036032Y031930D01*
X036032Y031430D01*
X036282Y031180D01*
X036032Y030930D01*
X036032Y030430D01*
X036282Y030180D01*
X036032Y029930D01*
X036032Y029430D01*
X036282Y029180D01*
X036032Y028930D01*
X036032Y028430D01*
X036282Y028180D01*
X036032Y027930D01*
X036032Y027430D01*
D12*
X033532Y028030D02*
X033532Y030330D01*
X025532Y030330D01*
X025532Y029580D01*
X025571Y029578D01*
X025610Y029572D01*
X025648Y029563D01*
X025685Y029550D01*
X025721Y029533D01*
X025754Y029513D01*
X025786Y029489D01*
X025815Y029463D01*
X025841Y029434D01*
X025865Y029402D01*
X025885Y029369D01*
X025902Y029333D01*
X025915Y029296D01*
X025924Y029258D01*
X025930Y029219D01*
X025932Y029180D01*
X025930Y029141D01*
X025924Y029102D01*
X025915Y029064D01*
X025902Y029027D01*
X025885Y028991D01*
X025865Y028958D01*
X025841Y028926D01*
X025815Y028897D01*
X025786Y028871D01*
X025754Y028847D01*
X025721Y028827D01*
X025685Y028810D01*
X025648Y028797D01*
X025610Y028788D01*
X025571Y028782D01*
X025532Y028780D01*
X025532Y028030D01*
X033532Y028030D01*
X033532Y025330D02*
X033532Y024580D01*
X033493Y024578D01*
X033454Y024572D01*
X033416Y024563D01*
X033379Y024550D01*
X033343Y024533D01*
X033310Y024513D01*
X033278Y024489D01*
X033249Y024463D01*
X033223Y024434D01*
X033199Y024402D01*
X033179Y024369D01*
X033162Y024333D01*
X033149Y024296D01*
X033140Y024258D01*
X033134Y024219D01*
X033132Y024180D01*
X033134Y024141D01*
X033140Y024102D01*
X033149Y024064D01*
X033162Y024027D01*
X033179Y023991D01*
X033199Y023958D01*
X033223Y023926D01*
X033249Y023897D01*
X033278Y023871D01*
X033310Y023847D01*
X033343Y023827D01*
X033379Y023810D01*
X033416Y023797D01*
X033454Y023788D01*
X033493Y023782D01*
X033532Y023780D01*
X033532Y023030D01*
X024532Y023030D01*
X024532Y025330D01*
X033532Y025330D01*
X024768Y029562D02*
X024768Y029798D01*
X024296Y029798D02*
X024296Y029562D01*
X023532Y030330D02*
X023532Y028030D01*
X015532Y028030D01*
X015532Y028780D01*
X015571Y028782D01*
X015610Y028788D01*
X015648Y028797D01*
X015685Y028810D01*
X015721Y028827D01*
X015754Y028847D01*
X015786Y028871D01*
X015815Y028897D01*
X015841Y028926D01*
X015865Y028958D01*
X015885Y028991D01*
X015902Y029027D01*
X015915Y029064D01*
X015924Y029102D01*
X015930Y029141D01*
X015932Y029180D01*
X015930Y029219D01*
X015924Y029258D01*
X015915Y029296D01*
X015902Y029333D01*
X015885Y029369D01*
X015865Y029402D01*
X015841Y029434D01*
X015815Y029463D01*
X015786Y029489D01*
X015754Y029513D01*
X015721Y029533D01*
X015685Y029550D01*
X015648Y029563D01*
X015610Y029572D01*
X015571Y029578D01*
X015532Y029580D01*
X015532Y030330D01*
X023532Y030330D01*
X023532Y025330D02*
X023532Y024580D01*
X023493Y024578D01*
X023454Y024572D01*
X023416Y024563D01*
X023379Y024550D01*
X023343Y024533D01*
X023310Y024513D01*
X023278Y024489D01*
X023249Y024463D01*
X023223Y024434D01*
X023199Y024402D01*
X023179Y024369D01*
X023162Y024333D01*
X023149Y024296D01*
X023140Y024258D01*
X023134Y024219D01*
X023132Y024180D01*
X023134Y024141D01*
X023140Y024102D01*
X023149Y024064D01*
X023162Y024027D01*
X023179Y023991D01*
X023199Y023958D01*
X023223Y023926D01*
X023249Y023897D01*
X023278Y023871D01*
X023310Y023847D01*
X023343Y023827D01*
X023379Y023810D01*
X023416Y023797D01*
X023454Y023788D01*
X023493Y023782D01*
X023532Y023780D01*
X023532Y023030D01*
X014532Y023030D01*
X014532Y025330D01*
X023532Y025330D01*
X014768Y029562D02*
X014768Y029798D01*
X014296Y029798D02*
X014296Y029562D01*
X013532Y030330D02*
X013532Y028030D01*
X005532Y028030D01*
X005532Y028780D01*
X005571Y028782D01*
X005610Y028788D01*
X005648Y028797D01*
X005685Y028810D01*
X005721Y028827D01*
X005754Y028847D01*
X005786Y028871D01*
X005815Y028897D01*
X005841Y028926D01*
X005865Y028958D01*
X005885Y028991D01*
X005902Y029027D01*
X005915Y029064D01*
X005924Y029102D01*
X005930Y029141D01*
X005932Y029180D01*
X005930Y029219D01*
X005924Y029258D01*
X005915Y029296D01*
X005902Y029333D01*
X005885Y029369D01*
X005865Y029402D01*
X005841Y029434D01*
X005815Y029463D01*
X005786Y029489D01*
X005754Y029513D01*
X005721Y029533D01*
X005685Y029550D01*
X005648Y029563D01*
X005610Y029572D01*
X005571Y029578D01*
X005532Y029580D01*
X005532Y030330D01*
X013532Y030330D01*
X013532Y025330D02*
X013532Y024580D01*
X013493Y024578D01*
X013454Y024572D01*
X013416Y024563D01*
X013379Y024550D01*
X013343Y024533D01*
X013310Y024513D01*
X013278Y024489D01*
X013249Y024463D01*
X013223Y024434D01*
X013199Y024402D01*
X013179Y024369D01*
X013162Y024333D01*
X013149Y024296D01*
X013140Y024258D01*
X013134Y024219D01*
X013132Y024180D01*
X013134Y024141D01*
X013140Y024102D01*
X013149Y024064D01*
X013162Y024027D01*
X013179Y023991D01*
X013199Y023958D01*
X013223Y023926D01*
X013249Y023897D01*
X013278Y023871D01*
X013310Y023847D01*
X013343Y023827D01*
X013379Y023810D01*
X013416Y023797D01*
X013454Y023788D01*
X013493Y023782D01*
X013532Y023780D01*
X013532Y023030D01*
X004532Y023030D01*
X004532Y025330D01*
X013532Y025330D01*
X004768Y029562D02*
X004768Y029798D01*
X004296Y029798D02*
X004296Y029562D01*
X004032Y013330D02*
X004032Y012580D01*
X004071Y012578D01*
X004110Y012572D01*
X004148Y012563D01*
X004185Y012550D01*
X004221Y012533D01*
X004254Y012513D01*
X004286Y012489D01*
X004315Y012463D01*
X004341Y012434D01*
X004365Y012402D01*
X004385Y012369D01*
X004402Y012333D01*
X004415Y012296D01*
X004424Y012258D01*
X004430Y012219D01*
X004432Y012180D01*
X004430Y012141D01*
X004424Y012102D01*
X004415Y012064D01*
X004402Y012027D01*
X004385Y011991D01*
X004365Y011958D01*
X004341Y011926D01*
X004315Y011897D01*
X004286Y011871D01*
X004254Y011847D01*
X004221Y011827D01*
X004185Y011810D01*
X004148Y011797D01*
X004110Y011788D01*
X004071Y011782D01*
X004032Y011780D01*
X004032Y011030D01*
X013032Y011030D01*
X013032Y013330D01*
X004032Y013330D01*
X004032Y008330D02*
X004032Y006030D01*
X012032Y006030D01*
X012032Y006780D01*
X011993Y006782D01*
X011954Y006788D01*
X011916Y006797D01*
X011879Y006810D01*
X011843Y006827D01*
X011810Y006847D01*
X011778Y006871D01*
X011749Y006897D01*
X011723Y006926D01*
X011699Y006958D01*
X011679Y006991D01*
X011662Y007027D01*
X011649Y007064D01*
X011640Y007102D01*
X011634Y007141D01*
X011632Y007180D01*
X011634Y007219D01*
X011640Y007258D01*
X011649Y007296D01*
X011662Y007333D01*
X011679Y007369D01*
X011699Y007402D01*
X011723Y007434D01*
X011749Y007463D01*
X011778Y007489D01*
X011810Y007513D01*
X011843Y007533D01*
X011879Y007550D01*
X011916Y007563D01*
X011954Y007572D01*
X011993Y007578D01*
X012032Y007580D01*
X012032Y008330D01*
X004032Y008330D01*
X012796Y006798D02*
X012796Y006562D01*
X013268Y006562D02*
X013268Y006798D01*
X014032Y006030D02*
X014032Y008330D01*
X022032Y008330D01*
X022032Y007580D01*
X021993Y007578D01*
X021954Y007572D01*
X021916Y007563D01*
X021879Y007550D01*
X021843Y007533D01*
X021810Y007513D01*
X021778Y007489D01*
X021749Y007463D01*
X021723Y007434D01*
X021699Y007402D01*
X021679Y007369D01*
X021662Y007333D01*
X021649Y007296D01*
X021640Y007258D01*
X021634Y007219D01*
X021632Y007180D01*
X021634Y007141D01*
X021640Y007102D01*
X021649Y007064D01*
X021662Y007027D01*
X021679Y006991D01*
X021699Y006958D01*
X021723Y006926D01*
X021749Y006897D01*
X021778Y006871D01*
X021810Y006847D01*
X021843Y006827D01*
X021879Y006810D01*
X021916Y006797D01*
X021954Y006788D01*
X021993Y006782D01*
X022032Y006780D01*
X022032Y006030D01*
X014032Y006030D01*
X014032Y011030D02*
X014032Y011780D01*
X014071Y011782D01*
X014110Y011788D01*
X014148Y011797D01*
X014185Y011810D01*
X014221Y011827D01*
X014254Y011847D01*
X014286Y011871D01*
X014315Y011897D01*
X014341Y011926D01*
X014365Y011958D01*
X014385Y011991D01*
X014402Y012027D01*
X014415Y012064D01*
X014424Y012102D01*
X014430Y012141D01*
X014432Y012180D01*
X014430Y012219D01*
X014424Y012258D01*
X014415Y012296D01*
X014402Y012333D01*
X014385Y012369D01*
X014365Y012402D01*
X014341Y012434D01*
X014315Y012463D01*
X014286Y012489D01*
X014254Y012513D01*
X014221Y012533D01*
X014185Y012550D01*
X014148Y012563D01*
X014110Y012572D01*
X014071Y012578D01*
X014032Y012580D01*
X014032Y013330D01*
X023032Y013330D01*
X023032Y011030D01*
X014032Y011030D01*
X022796Y006798D02*
X022796Y006562D01*
X023268Y006562D02*
X023268Y006798D01*
X024032Y006030D02*
X024032Y008330D01*
X032032Y008330D01*
X032032Y007580D01*
X031993Y007578D01*
X031954Y007572D01*
X031916Y007563D01*
X031879Y007550D01*
X031843Y007533D01*
X031810Y007513D01*
X031778Y007489D01*
X031749Y007463D01*
X031723Y007434D01*
X031699Y007402D01*
X031679Y007369D01*
X031662Y007333D01*
X031649Y007296D01*
X031640Y007258D01*
X031634Y007219D01*
X031632Y007180D01*
X031634Y007141D01*
X031640Y007102D01*
X031649Y007064D01*
X031662Y007027D01*
X031679Y006991D01*
X031699Y006958D01*
X031723Y006926D01*
X031749Y006897D01*
X031778Y006871D01*
X031810Y006847D01*
X031843Y006827D01*
X031879Y006810D01*
X031916Y006797D01*
X031954Y006788D01*
X031993Y006782D01*
X032032Y006780D01*
X032032Y006030D01*
X024032Y006030D01*
X024032Y011030D02*
X024032Y011780D01*
X024071Y011782D01*
X024110Y011788D01*
X024148Y011797D01*
X024185Y011810D01*
X024221Y011827D01*
X024254Y011847D01*
X024286Y011871D01*
X024315Y011897D01*
X024341Y011926D01*
X024365Y011958D01*
X024385Y011991D01*
X024402Y012027D01*
X024415Y012064D01*
X024424Y012102D01*
X024430Y012141D01*
X024432Y012180D01*
X024430Y012219D01*
X024424Y012258D01*
X024415Y012296D01*
X024402Y012333D01*
X024385Y012369D01*
X024365Y012402D01*
X024341Y012434D01*
X024315Y012463D01*
X024286Y012489D01*
X024254Y012513D01*
X024221Y012533D01*
X024185Y012550D01*
X024148Y012563D01*
X024110Y012572D01*
X024071Y012578D01*
X024032Y012580D01*
X024032Y013330D01*
X033032Y013330D01*
X033032Y011030D01*
X024032Y011030D01*
X032796Y006798D02*
X032796Y006562D01*
X033268Y006562D02*
X033268Y006798D01*
D13*
X032657Y007127D02*
X032657Y007277D01*
X032657Y007202D02*
X032207Y007202D01*
X032207Y007127D02*
X032207Y007277D01*
X032282Y007434D02*
X032582Y007434D01*
X032657Y007509D01*
X032657Y007659D01*
X032582Y007734D01*
X032432Y007895D02*
X032432Y008195D01*
X032657Y008120D02*
X032207Y008120D01*
X032432Y007895D01*
X032282Y007734D02*
X032207Y007659D01*
X032207Y007509D01*
X032282Y007434D01*
X023907Y011005D02*
X023907Y011155D01*
X023907Y011080D02*
X023457Y011080D01*
X023457Y011005D02*
X023457Y011155D01*
X023532Y011312D02*
X023832Y011312D01*
X023907Y011387D01*
X023907Y011537D01*
X023832Y011612D01*
X023907Y011772D02*
X023907Y012073D01*
X023907Y011922D02*
X023457Y011922D01*
X023607Y011772D01*
X023532Y011612D02*
X023457Y011537D01*
X023457Y011387D01*
X023532Y011312D01*
X023532Y012233D02*
X023457Y012308D01*
X023457Y012458D01*
X023532Y012533D01*
X023832Y012233D01*
X023907Y012308D01*
X023907Y012458D01*
X023832Y012533D01*
X023532Y012533D01*
X023532Y012233D02*
X023832Y012233D01*
X022582Y008195D02*
X022657Y008120D01*
X022657Y007970D01*
X022582Y007895D01*
X022432Y007895D02*
X022357Y008045D01*
X022357Y008120D01*
X022432Y008195D01*
X022582Y008195D01*
X022432Y007895D02*
X022207Y007895D01*
X022207Y008195D01*
X022282Y007734D02*
X022207Y007659D01*
X022207Y007509D01*
X022282Y007434D01*
X022582Y007434D01*
X022657Y007509D01*
X022657Y007659D01*
X022582Y007734D01*
X022657Y007277D02*
X022657Y007127D01*
X022657Y007202D02*
X022207Y007202D01*
X022207Y007127D02*
X022207Y007277D01*
X013907Y011005D02*
X013907Y011155D01*
X013907Y011080D02*
X013457Y011080D01*
X013457Y011005D02*
X013457Y011155D01*
X013532Y011312D02*
X013457Y011387D01*
X013457Y011537D01*
X013532Y011612D01*
X013607Y011772D02*
X013457Y011922D01*
X013907Y011922D01*
X013907Y011772D02*
X013907Y012073D01*
X013907Y012233D02*
X013907Y012533D01*
X013907Y012383D02*
X013457Y012383D01*
X013607Y012233D01*
X013832Y011612D02*
X013907Y011537D01*
X013907Y011387D01*
X013832Y011312D01*
X013532Y011312D01*
X012582Y008195D02*
X012507Y008195D01*
X012432Y008120D01*
X012432Y007895D01*
X012582Y007895D01*
X012657Y007970D01*
X012657Y008120D01*
X012582Y008195D01*
X012282Y008045D02*
X012432Y007895D01*
X012282Y008045D02*
X012207Y008195D01*
X012282Y007734D02*
X012207Y007659D01*
X012207Y007509D01*
X012282Y007434D01*
X012582Y007434D01*
X012657Y007509D01*
X012657Y007659D01*
X012582Y007734D01*
X012657Y007277D02*
X012657Y007127D01*
X012657Y007202D02*
X012207Y007202D01*
X012207Y007127D02*
X012207Y007277D01*
X003907Y011005D02*
X003907Y011155D01*
X003907Y011080D02*
X003457Y011080D01*
X003457Y011005D02*
X003457Y011155D01*
X003532Y011312D02*
X003832Y011312D01*
X003907Y011387D01*
X003907Y011537D01*
X003832Y011612D01*
X003907Y011772D02*
X003907Y012073D01*
X003907Y011922D02*
X003457Y011922D01*
X003607Y011772D01*
X003532Y011612D02*
X003457Y011537D01*
X003457Y011387D01*
X003532Y011312D01*
X003532Y012233D02*
X003457Y012308D01*
X003457Y012458D01*
X003532Y012533D01*
X003607Y012533D01*
X003907Y012233D01*
X003907Y012533D01*
X013657Y024177D02*
X013657Y024327D01*
X013657Y024252D02*
X014107Y024252D01*
X014107Y024177D02*
X014107Y024327D01*
X014032Y024484D02*
X013732Y024484D01*
X013657Y024559D01*
X013657Y024709D01*
X013732Y024784D01*
X013657Y024945D02*
X013657Y025245D01*
X013732Y025245D01*
X014032Y024945D01*
X014107Y024945D01*
X014032Y024784D02*
X014107Y024709D01*
X014107Y024559D01*
X014032Y024484D01*
X014907Y028055D02*
X014907Y028205D01*
X014907Y028130D02*
X015357Y028130D01*
X015357Y028055D02*
X015357Y028205D01*
X015282Y028362D02*
X014982Y028362D01*
X014907Y028437D01*
X014907Y028587D01*
X014982Y028662D01*
X014982Y028822D02*
X014907Y028897D01*
X014907Y029048D01*
X014982Y029123D01*
X015057Y029123D01*
X015357Y028822D01*
X015357Y029123D01*
X015282Y028662D02*
X015357Y028587D01*
X015357Y028437D01*
X015282Y028362D01*
X023657Y025170D02*
X023657Y025020D01*
X023732Y024945D01*
X023807Y024945D01*
X023882Y025020D01*
X023882Y025170D01*
X023957Y025245D01*
X024032Y025245D01*
X024107Y025170D01*
X024107Y025020D01*
X024032Y024945D01*
X023957Y024945D01*
X023882Y025020D01*
X023882Y025170D02*
X023807Y025245D01*
X023732Y025245D01*
X023657Y025170D01*
X023732Y024784D02*
X023657Y024709D01*
X023657Y024559D01*
X023732Y024484D01*
X024032Y024484D01*
X024107Y024559D01*
X024107Y024709D01*
X024032Y024784D01*
X024107Y024327D02*
X024107Y024177D01*
X024107Y024252D02*
X023657Y024252D01*
X023657Y024177D02*
X023657Y024327D01*
X024907Y028055D02*
X024907Y028205D01*
X024907Y028130D02*
X025357Y028130D01*
X025357Y028055D02*
X025357Y028205D01*
X025282Y028362D02*
X024982Y028362D01*
X024907Y028437D01*
X024907Y028587D01*
X024982Y028662D01*
X024982Y028822D02*
X024907Y028897D01*
X024907Y029048D01*
X024982Y029123D01*
X025057Y029123D01*
X025132Y029048D01*
X025207Y029123D01*
X025282Y029123D01*
X025357Y029048D01*
X025357Y028897D01*
X025282Y028822D01*
X025282Y028662D02*
X025357Y028587D01*
X025357Y028437D01*
X025282Y028362D01*
X025132Y028972D02*
X025132Y029048D01*
X033657Y025170D02*
X033657Y025020D01*
X033732Y024945D01*
X033807Y024945D01*
X033882Y025020D01*
X033882Y025245D01*
X034032Y025245D02*
X033732Y025245D01*
X033657Y025170D01*
X034032Y025245D02*
X034107Y025170D01*
X034107Y025020D01*
X034032Y024945D01*
X034032Y024784D02*
X034107Y024709D01*
X034107Y024559D01*
X034032Y024484D01*
X033732Y024484D01*
X033657Y024559D01*
X033657Y024709D01*
X033732Y024784D01*
X033657Y024327D02*
X033657Y024177D01*
X033657Y024252D02*
X034107Y024252D01*
X034107Y024177D02*
X034107Y024327D01*
X035412Y027175D02*
X035337Y027250D01*
X035337Y027400D01*
X035412Y027475D01*
X035712Y027475D01*
X035787Y027400D01*
X035787Y027250D01*
X035712Y027175D01*
X035412Y027175D01*
X035337Y027635D02*
X035712Y027635D01*
X035787Y027710D01*
X035787Y027861D01*
X035712Y027936D01*
X035337Y027936D01*
X035337Y028096D02*
X035337Y028396D01*
X035337Y028246D02*
X035787Y028246D01*
X035787Y028556D02*
X035337Y028556D01*
X035337Y028781D01*
X035412Y028856D01*
X035562Y028856D01*
X035637Y028781D01*
X035637Y028556D01*
X035712Y029017D02*
X035337Y029017D01*
X035337Y029317D02*
X035712Y029317D01*
X035787Y029242D01*
X035787Y029092D01*
X035712Y029017D01*
X035337Y029477D02*
X035337Y029777D01*
X035337Y029627D02*
X035787Y029627D01*
X005357Y029123D02*
X005357Y028822D01*
X005357Y028972D02*
X004907Y028972D01*
X005057Y028822D01*
X004982Y028662D02*
X004907Y028587D01*
X004907Y028437D01*
X004982Y028362D01*
X005282Y028362D01*
X005357Y028437D01*
X005357Y028587D01*
X005282Y028662D01*
X005357Y028205D02*
X005357Y028055D01*
X005357Y028130D02*
X004907Y028130D01*
X004907Y028055D02*
X004907Y028205D01*
X001787Y027942D02*
X001337Y027942D01*
X001337Y028168D01*
X001412Y028243D01*
X001562Y028243D01*
X001637Y028168D01*
X001637Y027942D01*
X001787Y027782D02*
X001337Y027782D01*
X001337Y027482D02*
X001787Y027782D01*
X001787Y027482D02*
X001337Y027482D01*
X001337Y027325D02*
X001337Y027175D01*
X001337Y027250D02*
X001787Y027250D01*
X001787Y027175D02*
X001787Y027325D01*
X001712Y028403D02*
X001337Y028403D01*
X001337Y028703D02*
X001712Y028703D01*
X001787Y028628D01*
X001787Y028478D01*
X001712Y028403D01*
X001337Y028863D02*
X001337Y029163D01*
X001337Y029013D02*
X001787Y029013D01*
D14*
X002591Y021016D02*
X002591Y018752D01*
X007473Y018752D01*
X007473Y021016D01*
X002591Y021016D01*
X003536Y018971D02*
X003536Y018774D01*
X003496Y017586D02*
X003496Y017389D01*
X002591Y017608D02*
X007473Y017608D01*
X007473Y015344D01*
X002591Y015344D01*
X002591Y017608D01*
X006528Y017586D02*
X006528Y017389D01*
X006567Y018774D02*
X006567Y018971D01*
X008091Y018752D02*
X012973Y018752D01*
X012973Y021016D01*
X008091Y021016D01*
X008091Y018752D01*
X009036Y018774D02*
X009036Y018971D01*
X008996Y017586D02*
X008996Y017389D01*
X008091Y017608D02*
X012973Y017608D01*
X012973Y015344D01*
X008091Y015344D01*
X008091Y017608D01*
X012028Y017586D02*
X012028Y017389D01*
X012067Y018774D02*
X012067Y018971D01*
X013591Y018752D02*
X018473Y018752D01*
X018473Y021016D01*
X013591Y021016D01*
X013591Y018752D01*
X014536Y018774D02*
X014536Y018971D01*
X014496Y017586D02*
X014496Y017389D01*
X013591Y017608D02*
X018473Y017608D01*
X018473Y015344D01*
X013591Y015344D01*
X013591Y017608D01*
X017528Y017586D02*
X017528Y017389D01*
X017567Y018774D02*
X017567Y018971D01*
X019091Y018752D02*
X023973Y018752D01*
X023973Y021016D01*
X019091Y021016D01*
X019091Y018752D01*
X020036Y018774D02*
X020036Y018971D01*
X019996Y017586D02*
X019996Y017389D01*
X019091Y017608D02*
X023973Y017608D01*
X023973Y015344D01*
X019091Y015344D01*
X019091Y017608D01*
X023028Y017586D02*
X023028Y017389D01*
X023067Y018774D02*
X023067Y018971D01*
X024591Y018752D02*
X029473Y018752D01*
X029473Y021016D01*
X024591Y021016D01*
X024591Y018752D01*
X025536Y018774D02*
X025536Y018971D01*
X025496Y017586D02*
X025496Y017389D01*
X024591Y017608D02*
X029473Y017608D01*
X029473Y015344D01*
X024591Y015344D01*
X024591Y017608D01*
X028528Y017586D02*
X028528Y017389D01*
X028567Y018774D02*
X028567Y018971D01*
X030091Y018752D02*
X034973Y018752D01*
X034973Y021016D01*
X030091Y021016D01*
X030091Y018752D01*
X031036Y018774D02*
X031036Y018971D01*
X030996Y017586D02*
X030996Y017389D01*
X030091Y017608D02*
X034973Y017608D01*
X034973Y015344D01*
X030091Y015344D01*
X030091Y017608D01*
X034028Y017586D02*
X034028Y017389D01*
X034067Y018774D02*
X034067Y018971D01*
D15*
X035172Y017375D02*
X035232Y017375D01*
X035472Y017135D01*
X035532Y017135D01*
X035532Y017007D02*
X035172Y016767D01*
X035172Y017007D02*
X035532Y016767D01*
X035172Y017135D02*
X035172Y017375D01*
X030032Y017315D02*
X030032Y017195D01*
X029972Y017135D01*
X029912Y017135D01*
X029852Y017195D01*
X029852Y017315D01*
X029912Y017375D01*
X029972Y017375D01*
X030032Y017315D01*
X029852Y017315D02*
X029792Y017375D01*
X029732Y017375D01*
X029672Y017315D01*
X029672Y017195D01*
X029732Y017135D01*
X029792Y017135D01*
X029852Y017195D01*
X030032Y017007D02*
X029672Y016767D01*
X029672Y017007D02*
X030032Y016767D01*
X029892Y018897D02*
X029532Y019137D01*
X029712Y019265D02*
X029712Y019445D01*
X029772Y019505D01*
X029832Y019505D01*
X029892Y019445D01*
X029892Y019325D01*
X029832Y019265D01*
X029712Y019265D01*
X029592Y019385D01*
X029532Y019505D01*
X029892Y019137D02*
X029532Y018897D01*
X024392Y018897D02*
X024032Y019137D01*
X024032Y019265D02*
X024212Y019265D01*
X024152Y019385D01*
X024152Y019445D01*
X024212Y019505D01*
X024332Y019505D01*
X024392Y019445D01*
X024392Y019325D01*
X024332Y019265D01*
X024392Y019137D02*
X024032Y018897D01*
X024032Y019265D02*
X024032Y019505D01*
X024232Y017375D02*
X024172Y017315D01*
X024172Y017195D01*
X024232Y017135D01*
X024292Y017135D01*
X024352Y017195D01*
X024352Y017375D01*
X024472Y017375D02*
X024232Y017375D01*
X024472Y017375D02*
X024532Y017315D01*
X024532Y017195D01*
X024472Y017135D01*
X024532Y017007D02*
X024172Y016767D01*
X024172Y017007D02*
X024532Y016767D01*
X019032Y016767D02*
X019032Y017007D01*
X019032Y016887D02*
X018672Y016887D01*
X018792Y016767D01*
X018672Y016638D02*
X019032Y016398D01*
X019032Y016638D02*
X018672Y016398D01*
X018732Y017135D02*
X018672Y017195D01*
X018672Y017315D01*
X018732Y017375D01*
X018972Y017135D01*
X019032Y017195D01*
X019032Y017315D01*
X018972Y017375D01*
X018732Y017375D01*
X018732Y017135D02*
X018972Y017135D01*
X018892Y018897D02*
X018532Y019137D01*
X018712Y019265D02*
X018532Y019445D01*
X018892Y019445D01*
X018712Y019505D02*
X018712Y019265D01*
X018892Y019137D02*
X018532Y018897D01*
X013532Y017375D02*
X013532Y017135D01*
X013532Y017255D02*
X013172Y017255D01*
X013292Y017135D01*
X013532Y017007D02*
X013532Y016767D01*
X013532Y016887D02*
X013172Y016887D01*
X013292Y016767D01*
X013172Y016638D02*
X013532Y016398D01*
X013532Y016638D02*
X013172Y016398D01*
X013032Y018897D02*
X013392Y019137D01*
X013332Y019265D02*
X013392Y019325D01*
X013392Y019445D01*
X013332Y019505D01*
X013272Y019505D01*
X013212Y019445D01*
X013212Y019385D01*
X013212Y019445D02*
X013152Y019505D01*
X013092Y019505D01*
X013032Y019445D01*
X013032Y019325D01*
X013092Y019265D01*
X013032Y019137D02*
X013392Y018897D01*
X008032Y017375D02*
X008032Y017135D01*
X007792Y017375D01*
X007732Y017375D01*
X007672Y017315D01*
X007672Y017195D01*
X007732Y017135D01*
X007672Y016887D02*
X008032Y016887D01*
X008032Y016767D02*
X008032Y017007D01*
X007792Y016767D02*
X007672Y016887D01*
X007672Y016638D02*
X008032Y016398D01*
X008032Y016638D02*
X007672Y016398D01*
X007532Y018897D02*
X007892Y019137D01*
X007892Y019265D02*
X007652Y019505D01*
X007592Y019505D01*
X007532Y019445D01*
X007532Y019325D01*
X007592Y019265D01*
X007532Y019137D02*
X007892Y018897D01*
X007892Y019265D02*
X007892Y019505D01*
X002392Y019505D02*
X002392Y019265D01*
X002392Y019385D02*
X002032Y019385D01*
X002152Y019265D01*
X002032Y019137D02*
X002392Y018897D01*
X002392Y019137D02*
X002032Y018897D01*
D16*
X004887Y029690D02*
X004987Y029690D01*
X005012Y029715D01*
X005012Y029765D01*
X004987Y029790D01*
X004937Y029838D02*
X004937Y029938D01*
X005012Y029913D02*
X004862Y029913D01*
X004937Y029838D01*
X004887Y029790D02*
X004862Y029765D01*
X004862Y029715D01*
X004887Y029690D01*
X014862Y029715D02*
X014887Y029690D01*
X014987Y029690D01*
X015012Y029715D01*
X015012Y029765D01*
X014987Y029790D01*
X015012Y029838D02*
X015012Y029938D01*
X015012Y029888D02*
X014862Y029888D01*
X014912Y029838D01*
X014887Y029790D02*
X014862Y029765D01*
X014862Y029715D01*
X024862Y029715D02*
X024887Y029690D01*
X024987Y029690D01*
X025012Y029715D01*
X025012Y029765D01*
X024987Y029790D01*
X025012Y029838D02*
X024912Y029938D01*
X024887Y029938D01*
X024862Y029913D01*
X024862Y029863D01*
X024887Y029838D01*
X024887Y029790D02*
X024862Y029765D01*
X024862Y029715D01*
X025012Y029838D02*
X025012Y029938D01*
X022677Y006632D02*
X022652Y006632D01*
X022627Y006607D01*
X022627Y006532D01*
X022677Y006532D01*
X022702Y006557D01*
X022702Y006607D01*
X022677Y006632D01*
X022577Y006582D02*
X022627Y006532D01*
X022677Y006485D02*
X022702Y006460D01*
X022702Y006410D01*
X022677Y006385D01*
X022577Y006385D01*
X022552Y006410D01*
X022552Y006460D01*
X022577Y006485D01*
X022577Y006582D02*
X022552Y006632D01*
X012702Y006607D02*
X012702Y006557D01*
X012677Y006532D01*
X012677Y006485D02*
X012702Y006460D01*
X012702Y006410D01*
X012677Y006385D01*
X012577Y006385D01*
X012552Y006410D01*
X012552Y006460D01*
X012577Y006485D01*
X012552Y006532D02*
X012627Y006532D01*
X012602Y006582D01*
X012602Y006607D01*
X012627Y006632D01*
X012677Y006632D01*
X012702Y006607D01*
X012552Y006632D02*
X012552Y006532D01*
X032552Y006557D02*
X032552Y006607D01*
X032577Y006632D01*
X032602Y006632D01*
X032627Y006607D01*
X032652Y006632D01*
X032677Y006632D01*
X032702Y006607D01*
X032702Y006557D01*
X032677Y006532D01*
X032677Y006485D02*
X032702Y006460D01*
X032702Y006410D01*
X032677Y006385D01*
X032577Y006385D01*
X032552Y006410D01*
X032552Y006460D01*
X032577Y006485D01*
X032577Y006532D02*
X032552Y006557D01*
X032627Y006582D02*
X032627Y006607D01*
M02*
