G75*
%MOIN*%
%OFA0B0*%
%FSLAX24Y24*%
%IPPOS*%
%LPD*%
%AMOC8*
5,1,8,0,0,1.08239X$1,22.5*
%
%ADD10C,0.0000*%
%ADD11C,0.0040*%
D10*
X000180Y000180D02*
X000180Y033176D01*
X039300Y033176D01*
X039300Y000180D01*
X000180Y000180D01*
D11*
X003118Y027450D02*
X003032Y027537D01*
X003032Y027884D01*
X003118Y027970D01*
X003379Y027970D01*
X003379Y027450D01*
X003118Y027450D01*
X003547Y027450D02*
X003547Y027970D01*
X003894Y027970D02*
X003547Y027450D01*
X003894Y027450D02*
X003894Y027970D01*
X004063Y027884D02*
X004150Y027970D01*
X004323Y027970D01*
X004410Y027884D01*
X004410Y027537D01*
X004323Y027450D01*
X004150Y027450D01*
X004063Y027537D01*
X004063Y027710D01*
X004237Y027710D01*
X004394Y028450D02*
X004394Y028970D01*
X004563Y028884D02*
X004650Y028970D01*
X004823Y028970D01*
X004910Y028884D01*
X004910Y028797D01*
X004823Y028710D01*
X004650Y028710D01*
X004563Y028623D01*
X004563Y028537D01*
X004650Y028450D01*
X004823Y028450D01*
X004910Y028537D01*
X004394Y028710D02*
X004047Y028710D01*
X003879Y028537D02*
X003792Y028450D01*
X003618Y028450D01*
X003532Y028537D01*
X003363Y028623D02*
X003103Y028623D01*
X003016Y028710D01*
X003016Y028884D01*
X003103Y028970D01*
X003363Y028970D01*
X003363Y028450D01*
X003532Y028884D02*
X003618Y028970D01*
X003792Y028970D01*
X003879Y028884D01*
X003879Y028537D01*
X004047Y028450D02*
X004047Y028970D01*
X004221Y029450D02*
X004221Y029970D01*
X004394Y029970D02*
X004047Y029970D01*
X003879Y029884D02*
X003879Y029537D01*
X003792Y029450D01*
X003618Y029450D01*
X003532Y029537D01*
X003363Y029623D02*
X003103Y029623D01*
X003016Y029710D01*
X003016Y029884D01*
X003103Y029970D01*
X003363Y029970D01*
X003363Y029450D01*
X003532Y029884D02*
X003618Y029970D01*
X003792Y029970D01*
X003879Y029884D01*
X003900Y030450D02*
X003813Y030537D01*
X003813Y030884D01*
X003900Y030970D01*
X004160Y030970D01*
X004160Y030450D01*
X003900Y030450D01*
X003644Y030450D02*
X003471Y030450D01*
X003558Y030450D02*
X003558Y030970D01*
X003644Y030970D02*
X003471Y030970D01*
X003301Y030970D02*
X002954Y030450D01*
X002954Y030970D01*
X003301Y030970D02*
X003301Y030450D01*
X003292Y031450D02*
X003118Y031450D01*
X003032Y031537D01*
X003292Y031450D02*
X003379Y031537D01*
X003379Y031884D01*
X003292Y031970D01*
X003118Y031970D01*
X003032Y031884D01*
X003547Y031884D02*
X003634Y031970D01*
X003808Y031970D01*
X003894Y031884D01*
X003894Y031537D01*
X003808Y031450D01*
X003634Y031450D01*
X003547Y031537D01*
X004063Y031623D02*
X004063Y031970D01*
X004063Y031623D02*
X004237Y031450D01*
X004410Y031623D01*
X004410Y031970D01*
X004650Y029970D02*
X004823Y029970D01*
X004910Y029884D01*
X004910Y029797D01*
X004823Y029710D01*
X004650Y029710D01*
X004563Y029623D01*
X004563Y029537D01*
X004650Y029450D01*
X004823Y029450D01*
X004910Y029537D01*
X004563Y029884D02*
X004650Y029970D01*
X033516Y029884D02*
X033516Y029710D01*
X033603Y029623D01*
X033863Y029623D01*
X033863Y029450D02*
X033863Y029970D01*
X033603Y029970D01*
X033516Y029884D01*
X034032Y029884D02*
X034118Y029970D01*
X034292Y029970D01*
X034379Y029884D01*
X034379Y029537D01*
X034292Y029450D01*
X034118Y029450D01*
X034032Y029537D01*
X034547Y029970D02*
X034894Y029970D01*
X034721Y029970D02*
X034721Y029450D01*
X035063Y029537D02*
X035150Y029450D01*
X035323Y029450D01*
X035410Y029537D01*
X035323Y029710D02*
X035150Y029710D01*
X035063Y029623D01*
X035063Y029537D01*
X035323Y029710D02*
X035410Y029797D01*
X035410Y029884D01*
X035323Y029970D01*
X035150Y029970D01*
X035063Y029884D01*
X035150Y030450D02*
X035063Y030537D01*
X035063Y030884D01*
X035150Y030970D01*
X035410Y030970D01*
X035410Y030450D01*
X035150Y030450D01*
X034894Y030537D02*
X034894Y030884D01*
X034808Y030970D01*
X034634Y030970D01*
X034547Y030884D01*
X034547Y030537D01*
X034634Y030450D01*
X034808Y030450D01*
X034894Y030537D01*
X034379Y030537D02*
X034379Y030970D01*
X034032Y030970D02*
X034032Y030537D01*
X034118Y030450D01*
X034292Y030450D01*
X034379Y030537D01*
X033863Y030970D02*
X033516Y030970D01*
X033690Y030970D02*
X033690Y030450D01*
X034118Y031450D02*
X034032Y031537D01*
X034118Y031450D02*
X034292Y031450D01*
X034379Y031537D01*
X034379Y031884D01*
X034292Y031970D01*
X034118Y031970D01*
X034032Y031884D01*
X034547Y031884D02*
X034634Y031970D01*
X034808Y031970D01*
X034894Y031884D01*
X034894Y031537D01*
X034808Y031450D01*
X034634Y031450D01*
X034547Y031537D01*
X035063Y031623D02*
X035063Y031970D01*
X035063Y031623D02*
X035237Y031450D01*
X035410Y031623D01*
X035410Y031970D01*
X035323Y028970D02*
X035410Y028884D01*
X035410Y028797D01*
X035323Y028710D01*
X035150Y028710D01*
X035063Y028623D01*
X035063Y028537D01*
X035150Y028450D01*
X035323Y028450D01*
X035410Y028537D01*
X035323Y028970D02*
X035150Y028970D01*
X035063Y028884D01*
X034894Y028970D02*
X034894Y028450D01*
X034894Y028710D02*
X034547Y028710D01*
X034379Y028884D02*
X034379Y028537D01*
X034292Y028450D01*
X034118Y028450D01*
X034032Y028537D01*
X033863Y028623D02*
X033603Y028623D01*
X033516Y028710D01*
X033516Y028884D01*
X033603Y028970D01*
X033863Y028970D01*
X033863Y028450D01*
X034032Y028884D02*
X034118Y028970D01*
X034292Y028970D01*
X034379Y028884D01*
X034547Y028970D02*
X034547Y028450D01*
X034547Y027970D02*
X034547Y027450D01*
X034894Y027970D01*
X034894Y027450D01*
X035063Y027537D02*
X035063Y027710D01*
X035237Y027710D01*
X035410Y027537D02*
X035410Y027884D01*
X035323Y027970D01*
X035150Y027970D01*
X035063Y027884D01*
X035063Y027537D02*
X035150Y027450D01*
X035323Y027450D01*
X035410Y027537D01*
X034379Y027450D02*
X034118Y027450D01*
X034032Y027537D01*
X034032Y027884D01*
X034118Y027970D01*
X034379Y027970D01*
X034379Y027450D01*
M02*
